<svg clip-rule="evenodd" fill-rule="evenodd" stroke-linejoin="round" stroke-miterlimit="2" viewBox="0 0 1024 1024" xmlns="http://www.w3.org/2000/svg"><path d="m0 0h1024v1024h-1024z" fill="none"/><g fill-rule="nonzero"><path d="m0 0h1024v1024h-1024z" fill="#fff"/><path d="m0 0c237.366 0 237.366 0 272 31 .932.808.932.808 1.883 1.633 15.298 14.16 25.62 35.965 27.027 56.73.045 1.305.045 1.305.09 2.637.04 1.128.08 2.256.121 3.418.478 27.108-7.427 50.213-26.092 69.83-14.093 14.448-30.645 21.495-50.029 25.752h-2v2c.744-.009 1.488-.018 2.254-.027 21.659.588 44.482 9.702 60.746 24.027.794.652 1.588 1.305 2.406 1.977 18.812 15.966 29.438 38.537 31.594 63.023 1.727 29.294-5.741 58.691-25.368 81.02-8.533 9.412-17.497 16.808-28.632 22.98-.594.332-1.188.665-1.799 1.007-16.012 8.851-33.164 14.217-51.201 16.993-3.96.66-7.92 1.32-12 2h-201z" fill="#210e03" transform="matrix(.425847 0 0 .425847 11.999962 843.473264)"/><path d="m0 0h85v165h183v-165h85v406h-85v-171h-183v171h-85z" fill="#210e03" transform="matrix(.425847 0 0 .425847 557.084122 843.473264)"/><path d="m0 0c2.575 2.211 5.093 4.481 7.615 6.753 1.247 1.004 2.496 2.004 3.75 3 28.134 24.235 40.303 64.879 43.043 100.52.933 15.705 1.128 31.758-1.438 47.325-.256 1.554-.497 3.111-.73 4.67-4.717 31.575-17.242 59.573-39.625 82.485-.739.8-1.477 1.601-2.238 2.426-23.109 24.461-59.781 36.639-92.718 37.702-35.46.721-35.46.721-51.044-3.128-1.244-.298-1.244-.298-2.513-.602-35.019-8.61-64.708-27.892-84.487-58.398-.623-.939-1.245-1.877-1.887-2.844-5.694-9.11-9.403-19.117-13.113-29.156-.621-1.667-.621-1.667-1.254-3.367-3.558-10.52-5.111-21.677-6.746-32.633-.107-.703-.214-1.407-.323-2.132-5.821-44.19 3.057-91.643 29.503-127.852 18.453-23.388 42.331-39.39 70.82-48.016.986-.304 1.972-.609 2.988-.922 2.991-.829 5.966-1.482 9.012-2.078.684-.135 1.367-.271 2.071-.41 42.564-8.094 94.791-1.94 129.314 26.657z" fill="#210e03" transform="matrix(.425847 0 0 .425847 393.29698235347 897.66104701829)"/><path d="m0 0c27.979 25.687 44.024 62.91 46.062 100.75.118 5.105.145 10.205.131 15.311-.005 2.354 0 4.708.006 7.062.009 13.729-.466 27.25-3.199 40.752-.322 1.594-.322 1.594-.651 3.22-2.299 10.688-5.901 20.66-10.287 30.655-.286.66-.572 1.321-.866 2.001-14.004 31.723-40.059 54.712-71.766 67.726-5.387 2.037-10.813 3.757-16.368 5.273-1.001.277-2.003.554-3.035.84-15.243 3.873-30.575 4.352-46.215 4.41-1.075.008-1.075.008-2.171.016-13.807.078-27.105-1.175-40.453-4.954-.935-.262-1.87-.525-2.834-.796-21.385-6.192-39.908-16.387-56.292-31.516-.733-.664-1.466-1.328-2.222-2.012-27.34-25.927-40.85-65.927-41.887-102.905-.073-4.361-.084-8.721-.078-13.083.001-.773.001-1.546.002-2.342.025-11.975.287-23.809 2.185-35.658.124-.776.248-1.552.375-2.352 5.949-35.472 24.78-69.879 54.157-91.273 57.363-40.235 142.422-37.445 195.406 8.875z" fill="#210e03" transform="matrix(.425847 0 0 .425847 262.3713825625 900.64322375)"/><path d="m0 0c3.005 2.687 5.912 5.466 8.812 8.266.742.689 1.483 1.379 2.247 2.089 25.006 23.837 35.424 59.62 38.753 92.911v43h-207c3.206 25.644 7.275 46.662 27.75 63.25 14.146 9.888 29.421 12.428 46.25 11.75.969-.02 1.937-.039 2.934-.059 15.143-.742 31.71-7.818 42.066-18.941 4.391-5.477 7.206-10.48 10-17h75c-.759 6.074-1.559 10.508-3.562 16.062-.263.733-.526 1.465-.798 2.22-11.343 30.476-34.736 53.324-63.966 66.898-20.704 9.201-42.24 13.007-64.799 13.005-2.341.002-4.682.02-7.023.039-13.84.053-27.543-.929-40.976-4.474-.835-.217-1.67-.433-2.531-.655-22.389-6.008-41.535-17.218-58.345-33.095-.738-.675-1.477-1.349-2.238-2.043-15.585-14.755-25.684-33.771-32.141-54.031-.563-1.747-1.164-3.482-1.769-5.215-3.146-9.343-4.611-18.959-5.852-28.711-.083-.653-.167-1.305-.253-1.977-.642-5.32-.919-10.558-.95-15.914-.007-.819-.014-1.637-.021-2.481-.017-2.626-.023-5.252-.026-7.878-.001-1.345-.001-1.345-.003-2.717.011-13.239.491-26.043 3.253-39.033.145-.736.29-1.472.438-2.23 6.678-33.795 25.272-67.381 53.625-87.708 1.631-1.044 3.279-2.063 4.937-3.062 1.174-.743 2.347-1.486 3.52-2.231 11.916-7.464 23.868-12.173 37.48-15.769.988-.279 1.975-.557 2.993-.844 43.263-11.725 97.77-3.428 132.195 26.578z" fill="#210e03" transform="matrix(.425847 0 0 .425847 995.7863783125 898.29441139063)"/><path d="m0 0h83v225c7.314-7.314 14.047-14.979 20.551-23.016 2.767-3.372 5.6-6.681 8.449-9.984 3.555-4.125 7.068-8.272 10.5-12.5 4.387-5.401 8.912-10.675 13.449-15.949 6.226-7.239 12.412-14.51 18.426-21.926 3.622-4.453 7.354-8.798 11.125-13.125 9.174-10.084 9.174-10.084 17.057-21.112 3.084-3.014 4.671-2.974 8.843-3.01.855.018 1.71.036 2.591.054.908 0 1.816-.001 2.751-.002 2.998.004 5.994.043 8.992.082 2.08.009 4.159.016 6.238.021 5.472.019 10.943.068 16.414.124 5.583.051 11.167.074 16.751.099 10.954.053 21.909.139 32.863.244-2.434 4.215-5.273 7.621-8.625 11.125-3.78 4.016-7.425 8.066-10.875 12.375-3.821 4.762-7.891 9.214-12.061 13.666-3.097 3.326-6.035 6.721-8.877 10.272-4.026 5.02-8.354 9.686-12.763 14.368-4.042 4.316-7.795 8.799-11.49 13.417-3.147 3.785-6.506 7.352-9.87 10.944-3.097 3.325-6.035 6.72-8.877 10.271-3.509 4.375-7.221 8.481-11.062 12.562-10.726 9.846-10.726 9.846-16.5 22 1.264 2.363 1.264 2.363 3.25 4.75.745.976 1.49 1.952 2.258 2.957.406.531.813 1.061 1.231 1.608 2.225 2.974 4.298 6.052 6.386 9.123 4.25 6.217 8.549 12.398 12.875 18.562 4.152 5.919 8.288 11.848 12.375 17.812 7.152 10.435 14.395 20.807 21.625 31.188 15.617 22.421 15.617 22.421 22.919 33.076 4.248 6.188 8.56 12.33 12.87 18.474 4.227 6.03 8.417 12.084 12.572 18.163.408.596.816 1.192 1.237 1.807.39.571.781 1.143 1.184 1.732 1.311 1.881 2.669 3.725 4.027 5.572 2.191 3.176 2.191 3.176 2.191 5.176-12.065.348-24.129.615-36.198.777-5.606.078-11.208.184-16.811.355-5.414.163-10.826.252-16.242.291-2.06.028-4.119.082-6.178.163-15.7.595-15.7.595-20.513-3.061-3.383-3.533-5.858-7.487-8.133-11.797-1.138-2.126-2.484-4.051-3.913-5.99-.777-1.14-1.552-2.282-2.324-3.426-.916-1.342-1.833-2.685-2.75-4.027-.474-.692-.947-1.384-1.434-2.097-2.747-3.997-5.533-7.967-8.316-11.938-.589-.84-1.178-1.68-1.785-2.546-1.201-1.713-2.403-3.426-3.605-5.14-2.935-4.186-5.866-8.375-8.798-12.564-3.475-4.966-6.951-9.931-10.43-14.895-7.072-10.094-14.125-20.203-21.153-30.329-.634-.912-1.268-1.824-1.921-2.764-.895-1.291-.895-1.291-1.809-2.608-1.523-2.171-3.082-4.31-4.652-6.447-2.035-2.957-2.035-2.957-2.035-4.957-3.889 2.828-6.917 5.991-9.938 9.694-2.062 2.306-2.062 2.306-4.358 4.11-4.401 3.766-6.825 7.226-7.533 12.993-.426 6.089-.341 12.175-.269 18.273-.005 2.25-.015 4.501-.028 6.751-.025 5.896.004 11.79.044 17.685.038 7.088.008 14.176-.01 21.264-.021 10.744.044 21.485.092 32.23h-83z" fill="#210e03" transform="matrix(.425847 0 0 .425847 429.330022 843.473264)"/><path d="m0 0h88c7.952 28.401 7.952 28.401 11.502 42.48 1.374 5.385 2.839 10.712 4.498 16.016 1.998 6.387 3.68 12.828 5.312 19.316 2.24 8.78 4.603 17.504 7.188 26.188 2.853 9.591 5.404 19.238 7.875 28.934 1.899 7.401 3.946 14.742 6.125 22.066 2.849 9.578 5.4 19.212 7.864 28.896 2.242 8.75 4.706 17.421 7.327 26.065 1.789 5.965 3.203 11.91 4.309 18.039.66-.33 1.32-.66 2-1 .863-2.977 1.615-5.921 2.312-8.938.444-1.845.889-3.69 1.336-5.535.226-.932.451-1.864.683-2.824.961-3.881 2.021-7.73 3.107-11.578.416-1.482.833-2.964 1.25-4.445.212-.756.425-1.512.644-2.29 1.223-4.375 2.413-8.758 3.606-13.14.251-.923.502-1.846.761-2.796.512-1.88 1.023-3.76 1.535-5.64 1.253-4.605 2.51-9.209 3.766-13.814.372-1.365.372-1.365.752-2.758 1.236-4.534 2.474-9.068 3.713-13.601 2.698-9.875 5.377-19.755 8.035-29.641 2.898-10.778 5.823-21.549 8.766-32.314 1.247-4.562 2.49-9.124 3.734-13.686.5-1.833 1-3.667 1.5-5.5.371-1.361 2.25-8.25 3-11 .248-.909.495-1.817.751-2.753.497-1.823.995-3.646 1.492-5.468 1.296-4.744 2.584-9.488 3.862-14.236.265-.98.53-1.961.803-2.971.502-1.859 1.002-3.718 1.5-5.578.23-.85.46-1.7.697-2.576.198-.735.395-1.469.599-2.226 1.162-3.929 2.5-7.805 3.796-11.692h85c-2.25 10.126-2.25 10.126-3.641 14.205-.313.923-.625 1.846-.947 2.798-.336.976-.672 1.952-1.017 2.958-.356 1.046-.712 2.092-1.078 3.169-1.163 3.417-2.334 6.831-3.505 10.245-.819 2.403-1.639 4.805-2.459 7.208-5.164 15.12-10.4 30.214-15.689 45.29-5.919 16.881-11.664 33.819-17.394 50.766-5.138 15.19-10.332 30.357-15.645 45.486-7.114 20.26-14 40.597-20.867 60.942-6.526 19.332-13.14 38.631-19.758 57.933h-93c-4.499-11.249-4.499-11.249-6.236-16.328-.392-1.143-.784-2.287-1.188-3.465-.413-1.212-.826-2.423-1.252-3.672-.446-1.302-.892-2.604-1.338-3.906-.945-2.757-1.888-5.514-2.831-8.271-2.239-6.554-4.486-13.104-6.733-19.655-.5-1.46-1.001-2.919-1.502-4.379-4.121-12.018-8.282-24.021-12.482-36.012-6.041-17.249-11.997-34.528-17.938-51.812-6.247-18.174-12.518-36.338-18.867-54.477-6.651-19.006-13.197-38.049-19.738-57.094-1.08-3.145-2.162-6.291-3.243-9.437-.612-1.783-.612-1.783-1.237-3.603-2.545-7.398-5.118-14.786-7.788-22.14-1.627-4.534-1.627-4.534-1.627-6.749z" fill="#210e03" transform="matrix(.425847 0 0 .425847 769.581775 888.187199)"/><path d="m727.848769 887.761352h34.919454v128.605794h-34.919454z" fill="#210e03" stroke-width=".425847"/><path d="m0 0c9.151 9.151 14.154 18.897 14.25 31.812-.183 12.478-3.465 21.431-11.938 30.75-.824.743-1.65 1.485-2.5 2.25-1.361 1.269-1.361 1.269-2.75 2.563-9.792 7.944-22.144 9.214-34.281 8.027-11.76-1.515-20.36-7.796-27.781-16.785-6.89-9.612-9.089-19.097-8.188-30.805.071-.951.142-1.902.215-2.882 1.403-11.06 7.849-19.138 16.184-26.176 17.619-13.148 39.265-10.78 56.789 1.246z" fill="#210e03" transform="matrix(.425847 0 0 .425847 757.7379053125 839.2946403125)"/><path d="m0 0c1.045.447 2.091.895 3.168 1.355 17.715 8.209 27.572 24.303 34.117 42.149 1.06 3.478 1.923 6.947 2.715 10.496.298 1.237.596 2.475.902 3.75 6.647 30.652 3.727 68.916-13.214 95.812-6.806 10.159-14.619 17.272-25.688 22.438-1.155.577-2.31 1.155-3.5 1.75-15.331 5.475-32.977 4.897-47.75-2-18.496-10.012-28.616-26.103-34.684-45.777-.788-2.976-1.438-5.959-2.066-8.973-.278-1.121-.557-2.243-.844-3.398-4.343-19.826-4.046-42.928.844-62.602.342-1.611.342-1.611.691-3.254 4.207-18.82 14.083-36.859 30.309-47.746 16.831-9.345 36.935-11.896 55-4z" fill="#fdfdfd" transform="matrix(.425847 0 0 .425847 228.330238 914.589713)"/><path d="m0 0c18.468 12.603 27.682 32.635 32.066 53.922 1.828 9.852 2.06 19.639 2.063 29.625.002.707.004 1.414.006 2.143-.005 13.727-.895 27.445-5.069 40.607-.261.839-.522 1.678-.791 2.543-5.293 16.383-14.383 33.008-30.265 41.235-9.758 4.643-17.514 6.297-28.256 6.347-1.074.02-2.148.041-3.254.062-15.621.076-28.497-4.823-40.008-15.5-2.92-3.044-5.405-6.303-7.738-9.812-.383-.565-.766-1.13-1.16-1.713-3.241-4.946-5.49-9.913-7.465-15.475-.299-.829-.599-1.658-.907-2.513-11.33-32.102-10.25-73.414 3.973-104.444 6.97-13.577 17.293-25.037 31.559-30.855.919-.393 1.838-.786 2.785-1.192 17.273-6.396 36.601-3.912 52.461 5.02z" fill="#fefefe" transform="matrix(.425847 0 0 .425847 366.40946439162 916.21990854688)"/><path d="m0 0c13.943-.083 27.885-.165 42.25-.25 4.36-.036 8.72-.073 13.212-.11 5.432-.018 5.432-.018 7.996-.022 1.745-.006 3.49-.02 5.235-.04 22.272-.25 45.733 2.629 63.307 17.422.656.521 1.312 1.042 1.988 1.578 8.002 7.026 13.286 19.008 14.197 29.565.082 2.227.093 4.441.065 6.669-.007.789-.014 1.577-.021 2.389-.254 14.428-3.961 27.931-14.006 38.705-18.965 17.685-45.548 19.438-70.063 19.289-1.653-.003-3.305-.005-4.958-.006-6.047-.01-12.093-.038-18.14-.064-13.55-.041-27.101-.082-41.062-.125z" fill="#fefefe" transform="matrix(.425847 0 0 .425847 48.196957 940.56638)"/><path d="m0 0c13.014-.083 26.029-.165 39.438-.25 6.111-.055 6.111-.055 12.345-.11 5.065-.018 5.065-.018 7.453-.022 1.63-.006 3.26-.02 4.89-.04 19.474-.234 40.022 2.656 54.874 16.422 8.055 7.959 12.964 16.976 13.266 28.434.005 2.001-.001 4.002-.016 6.004.008.998.015 1.996.023 3.025-.033 12.758-4.048 25.35-12.835 34.912-18.542 16.62-43.283 18.998-67.094 18.82-1.354-.003-2.708-.005-4.062-.006-4.927-.01-9.855-.038-14.782-.064-11.055-.041-22.11-.082-33.5-.125z" fill="#fdfdfd" transform="matrix(.425847 0 0 .425847 48.196957 870.301625)"/><path d="m0 0c13.512 10.446 21.905 27.399 25 44v8h-127c1.918-21.093 9.784-37.968 26.25-51.75 22.498-16.666 52.808-14.825 75.75-.25z" fill="#fdfdfd" transform="matrix(.425847 0 0 .425847 972.710794 916.293101)"/><path d="m-26.238-8.754c25.727-.497 37.157 17.502 38.238 31.625 1.497 19.57-11.371 41.048-36.301 41.688-10.385.266-18.34-2.984-26-10.02-1.834-1.504-1.834-1.504-3.988-1.184-11.887 5.432-18.656 25.773-22.953 37.172-.329.898-.658 1.795-.996 2.719.552.104 1.103.208 1.672.315 5.597 1.135 10.579 2.812 15.765 5.185.77.349 1.539.698 2.332 1.057 19.608 9.062 36.74 20.387 52.231 35.443.539.519 1.078 1.037 1.633 1.571 7.334 7.076 14.13 14.348 20.367 22.429.749.955 1.498 1.91 2.269 2.895 30.862 40.115 45.749 92.188 40.117 142.558-3.906 28.192-16.136 83.948-76.523 124.574-2.037.832-2.037.832-2.863 2.973.873.279 1.746.558 2.645.846 19.596 6.742 38.41 17.278 55.355 29.154l.625-2.5c10.777-22.524 86.359-80.782 105.375-81.5 6.237.985 9.025 3.347 13 8v2c.897.402.897.402 1.812.813 2.16 1.172 3.546 2.381 5.188 4.187l2.312-1c7.531-2.042 14.707-1.883 21.742 1.66 3.693 2.544 6.115 5.905 7.559 10.137.527 3.002.558 5.905.574 8.953.014 1.171.029 2.341.043 3.547-.453 7.275-31.424 90.92-33.23 95.703.595.262 1.191.523 1.804.793 2.32 1.275 3.619 2.51 5.321 4.52.746.86.746.86 1.508 1.738 5.37 7.656 4.04 18.338 2.972 27.238-6.226 34.659-34.346 34.812-39.605 34.711-.269.909-.269.909-.542 1.836-10.784 36.272-10.784 36.272-27.236 45.57-1.137.651-115.967 76.087-119.304 78.219-6.918 4.436-13.017 8.652-17.918 15.375-.575.75-1.15 1.501-1.742 2.274-1.442 1.893-2.86 3.8-4.258 5.726 1.45.636 1.45.636 2.929 1.285 12.227 5.46 22.189 10.678 29.071 22.715 1.651 4.953 1.859 9.964-.188 14.813-4.497 5.428-9.135 7.595-16.039 8.707-16.498 1.422-34.364-4.568-47.621-14.629-5.968-5.243-11.428-10.498-12.523-18.653-.266-11.7 4.166-18.536 12.054-26.867 1.147-1.174 1.147-1.174 2.317-2.371.651-.69 1.302-1.379 1.972-2.09 5.239-5.432 10.922-10.469 17.028-14.91 0 0 2-1.32 2-2-1.512-.184-1.512-.184-3.055-.371-5.046-.804-9.765-2.29-14.641-3.789-4.13-1.06-6.641-1.938-8.304-.84-2.655 1.752-2.655 1.752-5.375 4.188-22.886 18.568-56.064 34.766-85.625 37.812-.33 5.28-.66 10.56-1 16l6.562-.125c13.846-.07 29.3 1.012 40.438 10.125 5.177 5.21 8.027 8.808 8.375 16.25-.097 5.329-1.827 8.82-5.375 12.75-8.326 7.244-18.222 9.49-29 10-1.123.065-2.246.129-3.403.195-16.502.52-32.387-3.582-44.683-15.074-6.659-7.379-7.391-15.57-6.914-25.121.761-7.204 1.907-14.072 4-21-.774-.04-1.548-.079-2.345-.12-27.022-1.449-52.43-5.567-77.545-16.139-3.899-1.574-6.091-1.852-10.11-.741-1.682.777-53.783 24.873-58 11-.945-8.246 2.265-12.752 5.312-19.187 3.847-8.165 6.83-14.961 8.688-23.813-.582-.257-25.15-24.722-30-31-.874-1.063-1.75-2.125-2.629-3.183-28.957-35.213-44.5-85.741-40.135-131.277.229-1.85.492-3.696.764-5.54-1.222.486-2.444.972-3.703 1.473-5.996 1.989-11.777 2.022-18.047 1.965-1.155-.009-2.309-.017-3.498-.026-14.753-.292-25.974-4.138-36.44-14.974-21.011-21.757-9.24-51.468-7.312-55.438.435-.927.871-1.854 1.32-2.808 8.985-17.701 23.569-28.116 40.68-37.192-1.454-.874-1.454-.874-2.938-1.766-37.696-22.937-74.296-55.277-85.375-99.734-5.563-22.961-4.031-46.096 8.115-66.65 8.291-12.807 20.56-21.683 35.198-25.85 17.905-3.815 36.532-3.515 54 2 1.183.362 2.366.725 3.586 1.098 18.36 6.086 34.16 16.207 49.414 27.902.774.542 6 5 6 5 .082-1.299.165-2.599.25-3.937 3.591-34.603 20.571-69.514 43.75-95.063.805-.914 1.611-1.828 2.441-2.769 6.713-7.577 13.528-14.505 21.621-20.606.743-.562 1.485-1.123 2.25-1.702 11.62-8.7 23.584-15.704 36.688-21.923.683-.328 1.366-.658 2.071-.994 15.486-7.385 15.486-7.385 22.929-10.006-9.71-18.201-21.404-34.822-40-45-2.66 7-11.371 16.724-33 17-20.258.259-37.553-14.823-37.563-37.812-.01-23.632 17.734-37.099 35.813-36.95 22.164.183 34.75 13.797 39.75 31.762 1.237.351 2.475.701 3.75 1.063 33.816 13.65 58.475 58.002 59.25 61.937 1.137-.193 2.297-.281 3.445-.586 6.849-1.82 53.523-9.278 90.555-1.414.123-.525.247-1.049.375-1.59 5.319-19.979 17.751-42.917 35.437-54.222 4.825-3.085 8.321-5.075 8.321-5.075s2.405-32.486 34.867-33.113z" fill="#413018" transform="translate(656.238281 19.753906)"/><path d="m0 0c6.049-1.153 144.832 35.74 149 38-1.014 11.054-49.006 131.68-58 163-4.643-.571-128.383-33.691-151-45 .622-2.542 4.588-17.967 6-22l3.156.438c18.46 2.442 36.804 3.854 52.844-7.438 6.88-6.048 10.488-12.056 11.273-21.176.283-9.424-1.062-16.228-7.55-23.226-9.592-8.896-21.124-10.072-33.723-10.598.704-4.547 26-69 28-72z" fill="#e67e24" transform="translate(507 488)"/><path d="m0 0c1.677 1.134 3.378 2.231 5.094 3.305 8.285 5.259 15.236 11.451 22.234 18.269 1.425 1.356 1.425 1.356 2.879 2.738 2.121 2.262 5.121 5.262 5.121 5.262 2.984 7.082 3.795 15.2 4.938 22.75 3.171 19.728 8.545 38.418 18.875 55.649 1.187 2.601 1.187 2.601 1.121 4.652-1.263 2.636-2.947 4.56-4.871 6.762-3.779 4.497-7.185 9.109-10.438 14-.416.621-.832 1.243-1.261 1.884-2.404 3.653-4.484 7.344-6.364 11.303-6.76-1.169-13.042-2.837-19.437-5.312-1.323-.51-1.323-.51-2.672-1.03-21.324-8.437-41.704-18.305-59.145-33.314-2.442-2.084-4.931-4.04-7.496-5.969-9.261-7.186-16.261-16.056-23.25-25.375-.59-.784-1.181-1.567-1.789-2.375-13.513-17.938-35.606-63.454-.211-85.625 25.068-15.702 54.65-2.665 76.672 12.426z" fill="#a5dfbb" transform="translate(257.671875 279.425781)"/><path d="m14.27 45.802c-5.873-5.26-23.504-21.47-69.02-35.517-8.14-2.512-2.283-11.342 3.334-9.129 28.552 11.246 47.208 19.525 69.51 41.337 2.58 2.523-1.867 5.061-3.824 3.309z" fill="#3f2f18" transform="matrix(-.990986 -.133968 .133968 -.990986 262.074119 392.601281)"/><path d="m0 0s1.246-3.182 2.559 1.879c8.639 33.313 40.533 51.231 69.604 66.318 4.337 2.19 8.654 4.147 13.204 5.854 3.945 1.536 6.521 3.186 9.383 6.387 2.413 2.596 12.712 12.024 15.25 14.562 9.29 9.254 19.887 16.055 32 21-.537 5.248-10.145 15.583-8.125 30.938.106.806-.005 1.626-.008 2.464.15 2.922.634 5.718 1.133 8.598-9.865-1.16-19.059-3.577-28.438-6.75-.706-.237-1.413-.474-2.141-.718-22.793-7.694-44.667-17.699-64.421-31.532-1.005-.698-1.005-.698-2.031-1.409-4.412-3.084-8.723-6.282-12.969-9.591-.575-.447-1.15-.894-1.742-1.354-7.569-5.959-14.25-12.246-20.012-20.033-1.289-1.668-2.674-3.205-4.086-4.769-10.218-12.327-8.8-28.618-7.397-43.722 1.14-10.217 3.615-20.2 6.237-30.122.401-1.592.8-3.184 1.195-4.777.266-1.064.531-2.127.805-3.223z" fill="#fcc53f" transform="translate(290 499)"/><path d="m-10.746 6.574c9.595-8.438 11.786-5.698 10.883.078-.718 1.626-.718 1.626-1.449 3.286-3.22 7.586-22.137 61.199-22.596 62.359-1.572 3.582-2.377 5.317-5.897 7.219-1.519.363-1.519.363-3.07.734-9.517 2.673-16.803 8.218-21.934 16.762-4.832 9.422-6.928 18.413-4.507 28.968 1.819 5.473 3.942 9.406 8.242 13.29 1.074 1.73 1.074 1.73 1.027 4.242-1.379 5.046-3.392 9.715-5.515 14.488-.406.972-.939 1.9-1.229 2.945-2.961 10.658-82.982 60.055-85.209 60.055 1.366-8.094 4.435-15.328 7.619-22.836 1.61-3.801 3.193-7.613 4.776-11.426.314-.756.628-1.512.952-2.291 4.163-10.046 7.955-20.222 11.653-30.447.391-1.078.782-2.157 1.185-3.268 13.27-35.601 13.27-35.601 24.663-71.81 3.231-8.193 65.959-59.495 71.906-64.895 2.798-2.525 5.669-4.964 8.5-7.453z" fill="#e67e24" transform="translate(820 450)"/><path d="m0 0c3.923 3.285 7.69 6.659 11.379 10.207 38.301 44.951 123.522 50.243 139.621 52.793-3.488 9.097-7.008 18.179-10.562 27.25-.703 1.802-.703 1.802-1.42 3.641-2.525 6.441-5.124 12.824-8.018 19.109-25.794 1.121-50.457-5.562-73-18-.945-.504-1.89-1.008-2.863-1.527-2.137-1.473-2.137-1.473-3.449-4.848-2.228-4.784-4.876-6.623-9.688-8.625-3.771-.855-7.513-1.051-11.371-.918-8.022-.064-12.352-4.485-17.984-9.64-2.264-1.985-4.659-3.767-7.069-5.569-9.061-6.815-15.322-14.477-21.138-24.185-.36-.587-.719-1.174-1.09-1.779-1.507-2.637-2.368-4.468-2.227-7.534 2.7-7.295 7.72-13.677 12.199-19.969 2.366-3.388 4.525-6.88 6.68-10.406z" fill="#fcc640" transform="translate(334 415)"/><path d="m0 0c10.176 1.702 23.899 4.686 29 5-.404 7.268-2.852 13.621-5.43 20.357-.848 2.217-1.686 4.438-2.521 6.659-1.279 3.398-2.564 6.794-3.852 10.188-4.254 11.215-8.477 22.443-12.697 33.671-.453 1.204-.905 2.408-1.372 3.649-5.7 15.174-11.326 30.368-16.69 45.664-.258.733-.516 1.466-.782 2.222-2.777 7.918-5.411 15.86-7.777 23.912-2.531 7.71-8.261 11.897-15.094 15.894-2.698 1.185-4.453.909-7.223.034-1.537-.714-10.585-3.974-11.562-4.25 6.035-28.71 16.195-56 27.569-82.941 3.609-8.565 26.431-77.059 28.431-80.059z" fill="#e67f25" transform="translate(675 533)"/><path d="m0 0 5 5c-1.374 3.118-2.918 5.119-5.414 7.426-.679.632-71.545 61.249-74.745 64.034-18.538 16.136-18.538 16.136-30.795 15.892-5.52-.638-10.394-2.772-15.484-4.914-17.02-6.961-125.554-36.467-134.437-38.821-2.354-.624-4.762-1.026-7.125-1.617.33-5.28.66-10.56 1-16 1.485.268 2.97.536 4.5.812 4.059.7 8.06 1.259 12.164 1.602 47.439 4.322 90.833 22.88 130.671 48.062.708.446 1.416.892 2.145 1.352.613.388 1.226.777 1.857 1.177 4.846 2.899 9.068 3.424 14.558 2.569 3.7-1.009 7.916-12.411 10.105-15.574 13.286-19.19 77.152-67.692 86-71z" fill="#f9efd4" transform="translate(796 423)"/><path d="m0 0c.958.371 1.916.743 2.902 1.125.713.289 1.426.578 2.16.875-.568 1.151-1.136 2.302-1.722 3.488-6.36 13.042-12.132 26.205-15.832 40.27-.255.957-.509 1.914-.771 2.901-.481 1.853-.939 3.712-1.371 5.577-1.605 6.27-1.605 6.27-5.175 8.795-11.563 3.581-27.44 3.919-38.586-1.148-5.381-3.078-8.029-6.346-9.957-12.235-1.945-8.791-.542-15.955 4.231-23.531 11.384-16.252 28.202-23.671 47.09-27.488 6.154-1.055 11.175-.942 17.031 1.371z" fill="#a6dfbc" transform="translate(276.9375 449)"/><path d="m0 0c.854.006 1.709.012 2.589.018 19.21.135 37.46.98 55.946 6.587 2.388.722 4.784 1.405 7.184 2.086 9.929 2.893 19.026 6.572 28.105 11.517 2.157 1.162 4.336 2.272 6.52 3.382 10.823 5.611 19.725 12.318 28.531 20.722.886.841 1.771 1.681 2.684 2.547 4.698 4.596 9.08 9.431 13.316 14.453.71.822 1.421 1.643 2.152 2.489 5.727 6.764 10.439 13.83 14.848 21.511.334.573.668 1.145 1.012 1.734 22.511 38.834 26.377 84.094 15.225 127.216-4.992 18.011-13.276 34.663-25.237 49.05-.456.561-.913 1.121-1.383 1.698-9.293 11.39-19.2 21.274-31.617 29.302-1.009.659-2.019 1.318-3.059 1.997-3.273 2.078-6.591 4.052-9.941 6.003-1.545.963-1.545.963-3.121 1.946-8.749 4.872-14.979 3.807-24.207 1.626-5.385-1.152-10.848-1.856-16.297-2.634-2.339-.34-4.677-.68-7.016-1.02-1.648-.237-1.648-.237-3.33-.479-2.548-.369-5.093-.75-7.638-1.138-26.798-5.727-31.079-4.601-35.391 16.699-16.194-7.22-20.095 3.727-20.095 3.727s-189.178-8.972-171.008-184.912c3.866-37.432 45.502-117.789 120.103-126.815 1.941 2.864 1.941 3.864 3.563 6.313 14.369 17.882 24.009 2.023 23.57-5.145-.151-2.455-.633-4.761-1.133-7.168 11.812-2.695 23.031-3.454 35.125-3.312z" fill="#fdc640" transform="translate(504.125 131.6875)"/><path d="m-6.034.11c2.802-4.676 17.417 2.091 15.918 7.015-14.187 46.595-59.104 49.858-74.089.402-2.47-8.153 15.339-12.776 16.753-6.907 8.481 35.213 33.008 29.402 41.418-.51z" fill="#3f2f18" transform="matrix(-.990986 -.133968 .133968 -.990986 424.074119 286.601281)"/><path d="m-6.034.11c2.802-4.676 17.417 2.091 15.918 7.015-14.187 46.595-59.104 49.858-74.089.402-2.47-8.153 15.339-12.776 16.753-6.907 8.481 35.213 33.008 29.402 41.418-.51z" fill="#3f2f18" transform="matrix(-.990986 -.133968 .133968 -.990986 567.074119 300.601281)"/></g><ellipse cx="421" cy="323.5" fill="#e67f25" rx="27" ry="26.5"/><ellipse cx="628" cy="340.5" fill="#e67f25" rx="25" ry="23.5"/><path d="m6.527-3.383c5.438-14.145 18.186-6.73 17.315 2.486-3.543 37.536-75.89 50.972-89.911 9.038-3.642-10.893 13.428-18.694 18.617-7.521 11.224 24.166 44.766 19.963 53.979-4.003z" fill="#3f2f18" fill-rule="nonzero" transform="matrix(.859549 .16929 -.19324 .981151 541.574368 335.187622)"/><path d="m0 0c2.716 1.316 5.283 2.747 7.836 4.355 25.152 15.716 52.673 27.005 81.918 32.579 19.297 2.2 25.751 17.056 25.246 18.066-41.141-4.05-75.758-17.958-106.5-45.812-.757-.685-.757-.685-1.53-1.383-2.634-2.425-4.935-4.856-6.97-7.805z" fill="#f9c840" fill-rule="nonzero" transform="translate(331 675)"/><path d="m0 0c-11.716 6.664-22.892 11.814-36 15-1.357.365-1.357.365-2.742.738-2.087.531-4.129.943-6.258 1.262-.767.119-1.534.237-2.324.359-3.534.304-5.717.396-8.574-1.855-4.102-4.631-6.102-8.824-6.102-9.504 1.186.023 2.372.046 3.594.07 17.647.241 35.144-1.7 52.218-6.32 3.188-.75 3.188-.75 6.188.25z" fill="#f8c940" fill-rule="nonzero" transform="translate(542 711)"/><path d="m0 0c-1.766 1.008-3.538 2.006-5.312 3-1.48.835-1.48.835-2.989 1.688-2.699 1.312-2.699 1.312-5.699 1.312-.33-1.32-.66-2.64-1-4 1.935-.531 3.873-1.049 5.812-1.562 1.079-.291 2.158-.581 3.27-.879 2.918-.559 2.918-.559 5.918.441z" fill="#eac741" fill-rule="nonzero" transform="translate(542 711)"/><path d="m0 0c3.196 1.538 6.216 3.289 9.25 5.125.892.539 1.784 1.078 2.703 1.633 1.013.615 1.013.615 2.047 1.242-.66 1.32-1.32 2.64-2 4-4.526-3.678-8.394-7.411-12-12z" fill="#eac43e" fill-rule="nonzero" transform="translate(331 675)"/></svg>