<svg clip-rule="evenodd" fill-rule="evenodd" stroke-linejoin="round" stroke-miterlimit="2" viewBox="0 0 1024 1024" xmlns="http://www.w3.org/2000/svg"><path d="m0 0h1024v1024h-1024z" fill="none"/><g fill-rule="nonzero"><path d="m-26.238-8.754c25.727-.497 37.157 17.502 38.238 31.625 1.497 19.57-11.371 41.048-36.301 41.688-10.385.266-18.34-2.984-26-10.02-1.834-1.504-1.834-1.504-3.988-1.184-11.887 5.432-18.656 25.773-22.953 37.172-.329.898-.658 1.795-.996 2.719.552.104 1.103.208 1.672.315 5.597 1.135 10.579 2.812 15.765 5.185.77.349 1.539.698 2.332 1.057 19.608 9.062 36.74 20.387 52.231 35.443.539.519 1.078 1.037 1.633 1.571 7.334 7.076 14.13 14.348 20.367 22.429.749.955 1.498 1.91 2.269 2.895 30.862 40.115 45.749 92.188 40.117 142.558-3.906 28.192-16.136 83.948-76.523 124.574-2.037.832-2.037.832-2.863 2.973.873.279 1.746.558 2.645.846 19.596 6.742 38.41 17.278 55.355 29.154l.625-2.5c10.777-22.524 86.359-80.782 105.375-81.5 6.237.985 9.025 3.347 13 8v2c.897.402.897.402 1.812.813 2.16 1.172 3.546 2.381 5.188 4.187l2.312-1c7.531-2.042 14.707-1.883 21.742 1.66 3.693 2.544 6.115 5.905 7.559 10.137.527 3.002.558 5.905.574 8.953.014 1.171.029 2.341.043 3.547-.453 7.275-31.424 90.92-33.23 95.703.595.262 1.191.523 1.804.793 2.32 1.275 3.619 2.51 5.321 4.52.746.86.746.86 1.508 1.738 5.37 7.656 4.04 18.338 2.972 27.238-6.226 34.659-34.346 34.812-39.605 34.711-.269.909-.269.909-.542 1.836-10.784 36.272-10.784 36.272-27.236 45.57-1.137.651-115.967 76.087-119.304 78.219-6.918 4.436-13.017 8.652-17.918 15.375-.575.75-1.15 1.501-1.742 2.274-1.442 1.893-2.86 3.8-4.258 5.726 1.45.636 1.45.636 2.929 1.285 12.227 5.46 22.189 10.678 29.071 22.715 1.651 4.953 1.859 9.964-.188 14.813-4.497 5.428-9.135 7.595-16.039 8.707-16.498 1.422-34.364-4.568-47.621-14.629-5.968-5.243-11.428-10.498-12.523-18.653-.266-11.7 4.166-18.536 12.054-26.867 1.147-1.174 1.147-1.174 2.317-2.371.651-.69 1.302-1.379 1.972-2.09 5.239-5.432 10.922-10.469 17.028-14.91 0 0 2-1.32 2-2-1.512-.184-1.512-.184-3.055-.371-5.046-.804-9.765-2.29-14.641-3.789-4.13-1.06-6.641-1.938-8.304-.84-2.655 1.752-2.655 1.752-5.375 4.188-22.886 18.568-56.064 34.766-85.625 37.812-.33 5.28-.66 10.56-1 16l6.562-.125c13.846-.07 29.3 1.012 40.438 10.125 5.177 5.21 8.027 8.808 8.375 16.25-.097 5.329-1.827 8.82-5.375 12.75-8.326 7.244-18.222 9.49-29 10-1.123.065-2.246.129-3.403.195-16.502.52-32.387-3.582-44.683-15.074-6.659-7.379-7.391-15.57-6.914-25.121.761-7.204 1.907-14.072 4-21-.774-.04-1.548-.079-2.345-.12-27.022-1.449-52.43-5.567-77.545-16.139-3.899-1.574-6.091-1.852-10.11-.741-1.682.777-53.783 24.873-58 11-.945-8.246 2.265-12.752 5.312-19.187 3.847-8.165 6.83-14.961 8.688-23.813-.582-.257-25.15-24.722-30-31-.874-1.063-1.75-2.125-2.629-3.183-28.957-35.213-44.5-85.741-40.135-131.277.229-1.85.492-3.696.764-5.54-1.222.486-2.444.972-3.703 1.473-5.996 1.989-11.777 2.022-18.047 1.965-1.155-.009-2.309-.017-3.498-.026-14.753-.292-25.974-4.138-36.44-14.974-21.011-21.757-9.24-51.468-7.312-55.438.435-.927.871-1.854 1.32-2.808 8.985-17.701 23.569-28.116 40.68-37.192-1.454-.874-1.454-.874-2.938-1.766-37.696-22.937-74.296-55.277-85.375-99.734-5.563-22.961-4.031-46.096 8.115-66.65 8.291-12.807 20.56-21.683 35.198-25.85 17.905-3.815 36.532-3.515 54 2 1.183.362 2.366.725 3.586 1.098 18.36 6.086 34.16 16.207 49.414 27.902.774.542 6 5 6 5 .082-1.299.165-2.599.25-3.937 3.591-34.603 20.571-69.514 43.75-95.063.805-.914 1.611-1.828 2.441-2.769 6.713-7.577 13.528-14.505 21.621-20.606.743-.562 1.485-1.123 2.25-1.702 11.62-8.7 23.584-15.704 36.688-21.923.683-.328 1.366-.658 2.071-.994 15.486-7.385 15.486-7.385 22.929-10.006-9.71-18.201-21.404-34.822-40-45-2.66 7-11.371 16.724-33 17-20.258.259-37.553-14.823-37.563-37.812-.01-23.632 17.734-37.099 35.813-36.95 22.164.183 34.75 13.797 39.75 31.762 1.237.351 2.475.701 3.75 1.063 33.816 13.65 58.475 58.002 59.25 61.937 1.137-.193 2.297-.281 3.445-.586 6.849-1.82 53.523-9.278 90.555-1.414.123-.525.247-1.049.375-1.59 5.319-19.979 17.751-42.917 35.437-54.222 4.825-3.085 8.321-5.075 8.321-5.075s2.405-32.486 34.867-33.113z" fill="#413018" transform="translate(654.238281 123.753906)"/><path d="m0 0c6.049-1.153 144.832 35.74 149 38-1.014 11.054-49.006 131.68-58 163-4.643-.571-128.383-33.691-151-45 .622-2.542 4.588-17.967 6-22l3.156.438c18.46 2.442 36.804 3.854 52.844-7.438 6.88-6.048 10.488-12.056 11.273-21.176.283-9.424-1.062-16.228-7.55-23.226-9.592-8.896-21.124-10.072-33.723-10.598.704-4.547 26-69 28-72z" fill="#e67e24" transform="translate(505 592)"/><path d="m0 0c1.677 1.134 3.378 2.231 5.094 3.305 8.285 5.259 15.236 11.451 22.234 18.269 1.425 1.356 1.425 1.356 2.879 2.738 2.121 2.262 5.121 5.262 5.121 5.262 2.984 7.082 3.795 15.2 4.938 22.75 3.171 19.728 8.545 38.418 18.875 55.649 1.187 2.601 1.187 2.601 1.121 4.652-1.263 2.636-2.947 4.56-4.871 6.762-3.779 4.497-7.185 9.109-10.438 14-.416.621-.832 1.243-1.261 1.884-2.404 3.653-4.484 7.344-6.364 11.303-6.76-1.169-13.042-2.837-19.437-5.312-1.323-.51-1.323-.51-2.672-1.03-21.324-8.437-41.704-18.305-59.145-33.314-2.442-2.084-4.931-4.04-7.496-5.969-9.261-7.186-16.261-16.056-23.25-25.375-.59-.784-1.181-1.567-1.789-2.375-13.513-17.938-35.606-63.454-.211-85.625 25.068-15.702 54.65-2.665 76.672 12.426z" fill="#a5dfbb" transform="translate(255.671875 383.425781)"/><path d="m14.27 45.802c-5.873-5.26-23.504-21.47-69.02-35.517-8.14-2.512-2.283-11.342 3.334-9.129 28.552 11.246 47.208 19.525 69.51 41.337 2.58 2.523-1.867 5.061-3.824 3.309z" fill="#3f2f18" transform="matrix(-.990986 -.133968 .133968 -.990986 260.074119 496.601281)"/><path d="m0 0s1.246-3.182 2.559 1.879c8.639 33.313 40.533 51.231 69.604 66.318 4.337 2.19 8.654 4.147 13.204 5.854 3.945 1.536 6.521 3.186 9.383 6.387 2.413 2.596 12.712 12.024 15.25 14.562 9.29 9.254 19.887 16.055 32 21-.537 5.248-10.145 15.583-8.125 30.938.106.806-.005 1.626-.008 2.464.15 2.922.634 5.718 1.133 8.598-9.865-1.16-19.059-3.577-28.438-6.75-.706-.237-1.413-.474-2.141-.718-22.793-7.694-44.667-17.699-64.421-31.532-1.005-.698-1.005-.698-2.031-1.409-4.412-3.084-8.723-6.282-12.969-9.591-.575-.447-1.15-.894-1.742-1.354-7.569-5.959-14.25-12.246-20.012-20.033-1.289-1.668-2.674-3.205-4.086-4.769-10.218-12.327-8.8-28.618-7.397-43.722 1.14-10.217 3.615-20.2 6.237-30.122.401-1.592.8-3.184 1.195-4.777.266-1.064.531-2.127.805-3.223z" fill="#fcc53f" transform="translate(288 603)"/><path d="m-10.746 6.574c9.595-8.438 11.786-5.698 10.883.078-.718 1.626-.718 1.626-1.449 3.286-3.22 7.586-22.137 61.199-22.596 62.359-1.572 3.582-2.377 5.317-5.897 7.219-1.519.363-1.519.363-3.07.734-9.517 2.673-16.803 8.218-21.934 16.762-4.832 9.422-6.928 18.413-4.507 28.968 1.819 5.473 3.942 9.406 8.242 13.29 1.074 1.73 1.074 1.73 1.027 4.242-1.379 5.046-3.392 9.715-5.515 14.488-.406.972-.939 1.9-1.229 2.945-2.961 10.658-82.982 60.055-85.209 60.055 1.366-8.094 4.435-15.328 7.619-22.836 1.61-3.801 3.193-7.613 4.776-11.426.314-.756.628-1.512.952-2.291 4.163-10.046 7.955-20.222 11.653-30.447.391-1.078.782-2.157 1.185-3.268 13.27-35.601 13.27-35.601 24.663-71.81 3.231-8.193 65.959-59.495 71.906-64.895 2.798-2.525 5.669-4.964 8.5-7.453z" fill="#e67e24" transform="translate(818 554)"/><path d="m0 0c3.923 3.285 7.69 6.659 11.379 10.207 38.301 44.951 123.522 50.243 139.621 52.793-3.488 9.097-7.008 18.179-10.562 27.25-.703 1.802-.703 1.802-1.42 3.641-2.525 6.441-5.124 12.824-8.018 19.109-25.794 1.121-50.457-5.562-73-18-.945-.504-1.89-1.008-2.863-1.527-2.137-1.473-2.137-1.473-3.449-4.848-2.228-4.784-4.876-6.623-9.688-8.625-3.771-.855-7.513-1.051-11.371-.918-8.022-.064-12.352-4.485-17.984-9.64-2.264-1.985-4.659-3.767-7.069-5.569-9.061-6.815-15.322-14.477-21.138-24.185-.36-.587-.719-1.174-1.09-1.779-1.507-2.637-2.368-4.468-2.227-7.534 2.7-7.295 7.72-13.677 12.199-19.969 2.366-3.388 4.525-6.88 6.68-10.406z" fill="#fcc640" transform="translate(332 519)"/><path d="m0 0c10.176 1.702 23.899 4.686 29 5-.404 7.268-2.852 13.621-5.43 20.357-.848 2.217-1.686 4.438-2.521 6.659-1.279 3.398-2.564 6.794-3.852 10.188-4.254 11.215-8.477 22.443-12.697 33.671-.453 1.204-.905 2.408-1.372 3.649-5.7 15.174-11.326 30.368-16.69 45.664-.258.733-.516 1.466-.782 2.222-2.777 7.918-5.411 15.86-7.777 23.912-2.531 7.71-8.261 11.897-15.094 15.894-2.698 1.185-4.453.909-7.223.034-1.537-.714-10.585-3.974-11.562-4.25 6.035-28.71 16.195-56 27.569-82.941 3.609-8.565 26.431-77.059 28.431-80.059z" fill="#e67f25" transform="translate(673 637)"/><path d="m0 0 5 5c-1.374 3.118-2.918 5.119-5.414 7.426-.679.632-71.545 61.249-74.745 64.034-18.538 16.136-18.538 16.136-30.795 15.892-5.52-.638-10.394-2.772-15.484-4.914-17.02-6.961-125.554-36.467-134.437-38.821-2.354-.624-4.762-1.026-7.125-1.617.33-5.28.66-10.56 1-16 1.485.268 2.97.536 4.5.812 4.059.7 8.06 1.259 12.164 1.602 47.439 4.322 90.833 22.88 130.671 48.062.708.446 1.416.892 2.145 1.352.613.388 1.226.777 1.857 1.177 4.846 2.899 9.068 3.424 14.558 2.569 3.7-1.009 7.916-12.411 10.105-15.574 13.286-19.19 77.152-67.692 86-71z" fill="#f9efd4" transform="translate(794 527)"/><path d="m0 0c.958.371 1.916.743 2.902 1.125.713.289 1.426.578 2.16.875-.568 1.151-1.136 2.302-1.722 3.488-6.36 13.042-12.132 26.205-15.832 40.27-.255.957-.509 1.914-.771 2.901-.481 1.853-.939 3.712-1.371 5.577-1.605 6.27-1.605 6.27-5.175 8.795-11.563 3.581-27.44 3.919-38.586-1.148-5.381-3.078-8.029-6.346-9.957-12.235-1.945-8.791-.542-15.955 4.231-23.531 11.384-16.252 28.202-23.671 47.09-27.488 6.154-1.055 11.175-.942 17.031 1.371z" fill="#a6dfbc" transform="translate(274.9375 553)"/><path d="m0 0c.854.006 1.709.012 2.589.018 19.21.135 37.46.98 55.946 6.587 2.388.722 4.784 1.405 7.184 2.086 9.929 2.893 19.026 6.572 28.105 11.517 2.157 1.162 4.336 2.272 6.52 3.382 10.823 5.611 19.725 12.318 28.531 20.722.886.841 1.771 1.681 2.684 2.547 4.698 4.596 9.08 9.431 13.316 14.453.71.822 1.421 1.643 2.152 2.489 5.727 6.764 10.439 13.83 14.848 21.511.334.573.668 1.145 1.012 1.734 22.511 38.834 26.377 84.094 15.225 127.216-4.992 18.011-13.276 34.663-25.237 49.05-.456.561-.913 1.121-1.383 1.698-9.293 11.39-19.2 21.274-31.617 29.302-1.009.659-2.019 1.318-3.059 1.997-3.273 2.078-6.591 4.052-9.941 6.003-1.545.963-1.545.963-3.121 1.946-8.749 4.872-14.979 3.807-24.207 1.626-5.385-1.152-10.848-1.856-16.297-2.634-2.339-.34-4.677-.68-7.016-1.02-1.648-.237-1.648-.237-3.33-.479-2.548-.369-5.093-.75-7.638-1.138-26.798-5.727-31.079-4.601-35.391 16.699-16.194-7.22-20.095 3.727-20.095 3.727s-189.178-8.972-171.008-184.912c3.866-37.432 45.502-117.789 120.103-126.815 1.941 2.864 1.941 3.864 3.563 6.313 14.369 17.882 24.009 2.023 23.57-5.145-.151-2.455-.633-4.761-1.133-7.168 11.812-2.695 23.031-3.454 35.125-3.312z" fill="#fdc640" transform="translate(502.125 235.6875)"/><path d="m-6.034.11c2.802-4.676 17.417 2.091 15.918 7.015-14.187 46.595-59.104 49.858-74.089.402-2.47-8.153 15.339-12.776 16.753-6.907 8.481 35.213 33.008 29.402 41.418-.51z" fill="#3f2f18" transform="matrix(-.990986 -.133968 .133968 -.990986 422.074119 390.601281)"/><path d="m-6.034.11c2.802-4.676 17.417 2.091 15.918 7.015-14.187 46.595-59.104 49.858-74.089.402-2.47-8.153 15.339-12.776 16.753-6.907 8.481 35.213 33.008 29.402 41.418-.51z" fill="#3f2f18" transform="matrix(-.990986 -.133968 .133968 -.990986 565.074119 404.601281)"/></g><ellipse cx="419" cy="427.5" fill="#e67f25" rx="27" ry="26.5"/><ellipse cx="626" cy="444.5" fill="#e67f25" rx="25" ry="23.5"/><path d="m6.527-3.383c5.438-14.145 18.186-6.73 17.315 2.486-3.543 37.536-75.89 50.972-89.911 9.038-3.642-10.893 13.428-18.694 18.617-7.521 11.224 24.166 44.766 19.963 53.979-4.003z" fill="#3f2f18" fill-rule="nonzero" transform="matrix(.859549 .16929 -.19324 .981151 539.574368 439.187622)"/><path d="m0 0c2.716 1.316 5.283 2.747 7.836 4.355 25.152 15.716 52.673 27.005 81.918 32.579 19.297 2.2 25.751 17.056 25.246 18.066-41.141-4.05-75.758-17.958-106.5-45.812-.757-.685-.757-.685-1.53-1.383-2.634-2.425-4.935-4.856-6.97-7.805z" fill="#f9c840" fill-rule="nonzero" transform="translate(329 779)"/><path d="m0 0c-11.716 6.664-22.892 11.814-36 15-1.357.365-1.357.365-2.742.738-2.087.531-4.129.943-6.258 1.262-.767.119-1.534.237-2.324.359-3.534.304-5.717.396-8.574-1.855-4.102-4.631-6.102-8.824-6.102-9.504 1.186.023 2.372.046 3.594.07 17.647.241 35.144-1.7 52.218-6.32 3.188-.75 3.188-.75 6.188.25z" fill="#f8c940" fill-rule="nonzero" transform="translate(540 815)"/><path d="m0 0c-1.766 1.008-3.538 2.006-5.312 3-1.48.835-1.48.835-2.989 1.688-2.699 1.312-2.699 1.312-5.699 1.312-.33-1.32-.66-2.64-1-4 1.935-.531 3.873-1.049 5.812-1.562 1.079-.291 2.158-.581 3.27-.879 2.918-.559 2.918-.559 5.918.441z" fill="#eac741" fill-rule="nonzero" transform="translate(540 815)"/><path d="m0 0c3.196 1.538 6.216 3.289 9.25 5.125.892.539 1.784 1.078 2.703 1.633 1.013.615 1.013.615 2.047 1.242-.66 1.32-1.32 2.64-2 4-4.526-3.678-8.394-7.411-12-12z" fill="#eac43e" fill-rule="nonzero" transform="translate(329 779)"/></svg>