<svg clip-rule="evenodd" fill-rule="evenodd" stroke-linejoin="round" stroke-miterlimit="2" viewBox="0 0 532 640" xmlns="http://www.w3.org/2000/svg" xmlns:xlink="http://www.w3.org/1999/xlink"><clipPath id="a"><path clip-rule="evenodd" d="m582 0h532v688h-532z"/></clipPath><clipPath id="b"><path clip-rule="nonzero" d="m69.206-.401 5.605-.02c5.123-.016 402.96-.354 407.966-.328 1.809.005 3.617 0 5.425-.017 12.212-.106 20.008 1.436 29.884 9.188 5.323 5.414 9.07 10.527 11.914 17.578l1.043 2.155c1.21 3.594 1.231 6.94 1.206 10.685l.008 2.385c.006 2.647-.002 5.293-.01 7.94.014 7.177-.103 419.099-.111 424.229v5.59c.002 2.517-.002 5.035-.007 7.553l.006 2.23c-.02 28.005-17.135 25.233-17.135 25.233s.798 93.724.795 97.064l.076 2.962c-.078 13.475-3.304 24.094-22.815 24.11l-416.96-1.109c-15.881.035-76.242 1.414-76.236-68.037l-.009-2.694c-.008-2.983-.01-5.965-.012-8.948 0 0-.59-483.273-.594-485.364-.149-73.198 62.066-72.408 69.96-72.384z"/></clipPath><g transform="matrix(1 0 0 .930233 -582 0)"><path d="m582 0h532v688h-532z" fill="none"/><g clip-path="url(#a)"><g fill-rule="nonzero" transform="matrix(1 0 0 1.075 583 2.15)"><path d="m69.206-.401 5.605-.02c5.123-.016 402.96-.354 407.966-.328 1.809.005 3.617 0 5.425-.017 12.212-.106 20.008 1.436 29.884 9.188 5.323 5.414 9.07 10.527 11.914 17.578l1.043 2.155c1.21 3.594 1.231 6.94 1.206 10.685l.008 2.385c.006 2.647-.002 5.293-.01 7.94.014 7.177-.103 419.099-.111 424.229v5.59c.002 2.517-.002 5.035-.007 7.553l.006 2.23c-.02 28.005-17.135 25.233-17.135 25.233s.798 93.724.795 97.064l.076 2.962c-.078 13.475-3.304 24.094-22.815 24.11l-416.96-1.109c-15.881.035-76.242 1.414-76.236-68.037l-.009-2.694c-.008-2.983-.01-5.965-.012-8.948 0 0-.59-483.273-.594-485.364-.149-73.198 62.066-72.408 69.96-72.384z" fill="#210e03"/><g clip-path="url(#b)"><path d="m83.492 25.063c21.958-.806 364.737-1.187 385.737-1.193 34.422-.011 37.162 5.039 37.036 35.691-.145 35.713.422 310.417.741 406.811.076 22.948-4.208 28.789-25.006 29.628-8.937.361-336.285 1.257-398.304.488z" fill="#cc7935"/><path d="m83.065 519.64c6.524-.016 351.708.293 403.935.36l-1.249 3.225-1.638 4.287-.82 2.114c-2.66 6.994-4.154 13.972-5.293 21.374l-.434 2.645c-2.483 19.469.801 39.77 9.434 57.355v2c-41.666.053-418.263.065-418.263.065-15.86-.258-40.384-8.967-40.866-46.389.513-12.886 5.611-24.086 14.129-33.676 2.513-2.302 5.111-4.199 8-6l1.742-1.14c10.15-6.269 19.854-6.285 31.323-6.22z" fill="#f6e8c5"/><path d="m59.181 25.404-.197 4.897c-.018 4.06.127 463.045-.984 466.699-17.623 3.207-23 9-33 18v-1c-.208-64.221-.954-434.719-1-436.527-1.198-47.072 25.127-51.192 35.181-52.069z" fill="#cd7835"/></g></g><g transform="matrix(1.161924 0 0 1.308873775 540.313876 -63.4786339)"><g fill="#210e03"><path d="m252.486 92.286c12.968 9.117 21.517 23.994 27.873 37.948 1.44 3.162 2.645 6.171 4.349 9.085.037.065-.679.349-.397.129 4.739-3.699 36.605-2.703 39.689.552l.625-3.75c3.242-14.42 11.927-25.538 24.168-33.367 4.012-2.356 10.163 17.354 7.207 16.117-5.527 4.023-6.724 4.743-13.036 19.469-.528 1.233-1.881 2.919-.575 3.669 48.524 27.862 54.078 53.56 54.611 81.862l1.873-.2c32.297-7.873 57.473-2.087 62.127 24.2.709 8.577 0 15.361-4 23l-1.285 2.488c-10.357 18.55-51.929 45.701-73.715 40.512l.105 3.566c-2.446 143.35-142.105 90.434-142.105 90.434s-18.983 11.64-22.105 10.422c-3.69-.658 4.202-16.462 5.105-19.422l-2.055-2.203c-27.102-16.387-31.88-37.513-32.945-56.797l-2.453.973c-62.431 22.442-53.085-54.973-19.547-62.973l-2.188-2.188c-95.76-93.76-7.805-137.624 58.188-81.812 0 0 6.922-36.362 44-50-1.31-2.923-6.093-14.868-7.125-16.313-26.758-37.45-18.388-43.837-6.389-35.401z" fill-rule="nonzero"/><ellipse cx="229" cy="42.5" rx="18" ry="17.5" transform="matrix(.860642 0 0 .821317 48.786434 63.282392)"/><ellipse cx="372" cy="54.5" rx="19" ry="16.5" transform="matrix(.860642 0 0 .895982 41.04066 56.338529)"/></g><path d="m353.861 173.357c3.473 2.857 28.141 20.028 22.256 57.51-5.101 18.085-13.88 27.25-27.387 34.79-20.422 10.05-42.754 11.225-64.347 4.16-10.94-4.301-21.454-11.062-29.383-19.817l-2-2c-9.545-12.81-14.568-27.426-12.492-43.477 5.927-45.83 76.376-65.118 113.353-31.166z" fill="#fec402" fill-rule="nonzero"/><path d="m217 315 1.309 1.77c46.911 52.984 120.61 37.622 141.691 31.23-13.698 87.55-174.569 41.708-143-33z" fill="#fec402" fill-rule="nonzero"/><path d="m249 272c16.182 16.238 50.957 32.383 103.992 16.18 5.754 4.08 8.94 23.506 7.008 32.82-98.042 27.947-129.715-26.57-129.715-26.57s6.332-17.047 18.715-22.43z" fill="#fec402" fill-rule="nonzero"/></g><g fill-rule="nonzero" transform="matrix(1.161924 0 0 1.308873775 540.313876 -63.4786339)"><path d="m188.18 195.82c9.85 5.42 24.804 13.312 30.82 25.18.509 2.44.877 4.785 1.188 7.25 1.866 11.965 8.205 21.472 15.812 30.75-2.224 5.802-7.725 9.517-13.073 12.297-9.879 4.145-20.103-2.955-20.103-2.955-88.664-41.565-69.545-102.544-14.645-72.522z" fill="#b9dece"/><path d="m392.414 248.012c1.918-2.433 32.952-25.546 52.649-4.825 11.651 12.257-19.598 38.844-19.598 38.844-24.414 19.947-46.008 20.707-46.008 20.707-1.826-2.29-12.457-21.738-12.457-23.738 1.241-.958 2.512-1.875 3.813-2.75 9.027-6.845 18.383-15.326 21.601-28.238z" fill="#baddce"/><path d="m203 290c-3.76 4.6-9.946 16.896-11.289 19.488-2.705 5.167-3.69 16.05-9.219 17.887-36.244 17.315-28.856-24.861-11.761-33.298 1.159-.572 12.18-6.983 26.007-4.839 2.524.391 3.174.141 6.262.762z" fill="#bbddce"/></g><g fill="#210e03"><path d="m345.318 238.187c2.315-2.981 10.095 1.475 7.125 5.634-8.962 12.55-30.837 11.928-39.423.733-4.789-6.244 4.713-11.602 7.441-6.538 2.317 4.301 7.438 6.889 12.276 6.706 5.213-.198 9.542-2.624 12.581-6.535z" fill-rule="nonzero" transform="matrix(1.161924 0 0 1.308873775 537.3138753763 -62.40363361774)"/><ellipse cx="326" cy="202.5" rx="10" ry="9.5" transform="matrix(1.07811674573 0 0 1.67296581074 547.2347554659 -118.18142173561)"/><ellipse cx="326" cy="202.5" rx="10" ry="9.5" transform="matrix(.9281158431 0 0 1.5598084374 643.63476311361 -96.3419413526)"/></g></g></g></svg>