<svg xmlns="http://www.w3.org/2000/svg" width="532" height="688"><path fill="#cf7834" d="m69.206-.401 5.605-.02a3601.71 3601.71 0 0 1 15.37-.015c5.53 0 11.06-.016 16.59-.03C117.6-.491 128.429-.5 139.258-.501c8.802-.002 17.604-.008 26.406-.017 20.899-.022 41.798-.04 62.697-.04h2.024a589133.313 589133.313 0 0 1 16.272.002c21.155.002 42.31-.02 63.465-.061 23.78-.047 47.558-.072 71.337-.07 12.587.001 25.173-.007 37.76-.04 10.714-.026 21.428-.033 32.143-.013 5.466.01 10.931.01 16.397-.016 5.006-.023 10.012-.019 15.018.007 1.809.005 3.617 0 5.425-.017C500.414-.872 508.21.67 518.086 8.422 523.409 13.836 527.156 18.949 530 26l1.043 2.155c1.21 3.594 1.231 6.94 1.206 10.685l.008 2.385c.006 2.647-.002 5.293-.01 7.94a5722.312 5722.312 0 0 1 0 21.53c-.007 5.673-.002 11.346.002 17.02.005 11.117 0 22.233-.01 33.35-.01 12.935-.01 25.87-.01 38.805 0 23.768-.01 47.536-.025 71.305a98889.16 98889.16 0 0 0-.019 69.317v14.574c.001 22.017-.006 44.034-.014 66.051-.003 9.027-.004 18.053-.004 27.079 0 10.99-.005 21.98-.014 32.971-.005 5.612-.008 11.225-.007 16.837.001 5.13-.002 10.26-.01 15.39v5.59c.002 2.517-.002 5.035-.007 7.553l.006 2.23c-.02 5.005-.02 5.005-1.135 7.233h-2l-.328 2.215c-1.54 6.383-6.179 12.275-11.672 15.785h-2l.02 1.662c.154 13.372.27 26.743.343 40.116.036 6.467.086 12.934.165 19.4.076 6.245.118 12.488.136 18.732.013 2.38.038 4.758.076 7.137.051 3.34.058 6.677.055 10.017l.076 2.962c-.078 7.475-2.63 11.728-7.871 16.974-4.88 4.125-8.433 7.12-14.944 7.136l-3.188.015h-3.529l-3.728.013c-3.425.011-6.85.017-10.276.022-3.69.006-7.38.018-11.07.029-6.396.018-12.793.033-19.19.045-9.25.019-18.5.043-27.75.07-15.007.043-30.014.082-45.022.118l-2.724.006a840797.91 840797.91 0 0 1-41.012.098l-2.722.007c-14.95.036-29.902.076-44.853.119-9.232.026-18.463.048-27.695.067-6.32.012-12.64.028-18.96.047-3.651.011-7.303.02-10.955.025-3.95.005-7.899.018-11.848.032h-3.536l-3.18.015-2.766.007c-2.045-.098-2.045-.098-3.052 1.129-.11 2.897-.162 5.774-.176 8.672a5576.72 5576.72 0 0 1-.072 5.39c-.035 2.842-.064 5.684-.078 8.526a784.6 784.6 0 0 1-.1 8.209l.006 2.564c-.106 5.14-.7 7.914-4.58 11.639-4.755 3.07-9.561 3.096-15 2-5.462-2.261-10.488-5.444-15.528-8.506-3.41-2.06-6.861-4.046-10.314-6.034-3.09-1.78-6.168-3.58-9.245-5.382L139 666l-1.932-1.203c-2.774-1.07-4.252-.677-7.068.203-2.242 1.142-2.242 1.142-4.406 2.625l-2.485 1.63L120.5 671l-2.703 1.766c-3.946 2.594-7.839 5.211-11.578 8.097-6.042 4.64-10.593 7.138-18.367 7.04-4.198-1.329-7.138-3.414-9.852-6.903-.94-3.425-.82-6.68-.684-10.21l.03-2.935c.04-3.078.127-6.153.216-9.23.036-2.092.068-4.185.096-6.277.077-5.118.198-10.232.342-15.348l-1.904.027c-2.881.035-5.762.057-8.643.078l-2.995.043c-7.888.045-14.168-.98-21.458-4.148l-2.617-1.098C33.743 628.852 27.536 624.767 22 620v-2l-1.875-.687C17.385 615.62 16.95 614.008 16 611h-2c-4-6.75-4-6.75-4-9H8l-1-6-3-1-1-10H1c-.9-5.382-1.146-10.559-1.14-16.01l-.009-2.694c-.008-2.983-.01-5.965-.012-8.948l-.015-6.476c-.014-5.935-.022-11.87-.028-17.806-.006-5.09-.016-10.18-.027-15.27-.033-16.77-.054-33.539-.073-50.308l-.015-13.101a154512.013 154512.013 0 0 1-.086-100.23l-.002-2.366c-.016-25.29-.054-50.581-.105-75.872a45104.554 45104.554 0 0 1-.097-91.282c-.005-11.625-.03-23.25-.062-34.876a9323.796 9323.796 0 0 1-.03-35.094c.006-6.331.003-12.662-.028-18.993a2031.9 2031.9 0 0 1-.004-17.417c.003-2.09-.004-4.182-.022-6.273C-.904 53.786 1.88 38.132 14 24l1.492-1.937C22.45 13.257 31.744 7.308 42 3l3.56-1.558C53.146-1.035 61.311-.424 69.205-.4z"/><path fill="#423017" d="m69.206-.401 5.605-.02a3601.71 3601.71 0 0 1 15.37-.015c5.53 0 11.06-.016 16.59-.03C117.6-.491 128.429-.5 139.258-.501c8.802-.002 17.604-.008 26.406-.017 20.899-.022 41.798-.04 62.697-.04h2.024a589133.313 589133.313 0 0 1 16.272.002c21.155.002 42.31-.02 63.465-.061 23.78-.047 47.558-.072 71.337-.07 12.587.001 25.173-.007 37.76-.04 10.714-.026 21.428-.033 32.143-.013 5.466.01 10.931.01 16.397-.016 5.006-.023 10.012-.019 15.018.007 1.809.005 3.617 0 5.425-.017C500.414-.872 508.21.67 518.086 8.422 523.409 13.836 527.156 18.949 530 26l1.043 2.155c1.21 3.594 1.231 6.94 1.206 10.685l.008 2.385c.006 2.647-.002 5.293-.01 7.94a5722.312 5722.312 0 0 1 0 21.53c-.007 5.673-.002 11.346.002 17.02.005 11.117 0 22.233-.01 33.35-.01 12.935-.01 25.87-.01 38.805 0 23.768-.01 47.536-.025 71.305a98889.16 98889.16 0 0 0-.019 69.317v14.574c.001 22.017-.006 44.034-.014 66.051-.003 9.027-.004 18.053-.004 27.079 0 10.99-.005 21.98-.014 32.971-.005 5.612-.008 11.225-.007 16.837.001 5.13-.002 10.26-.01 15.39v5.59c.002 2.517-.002 5.035-.007 7.553l.006 2.23c-.02 5.005-.02 5.005-1.135 7.233h-2l-.328 2.215c-1.54 6.383-6.179 12.275-11.672 15.785h-2l.02 1.662c.154 13.372.27 26.743.343 40.116.036 6.467.086 12.934.165 19.4.076 6.245.118 12.488.136 18.732.013 2.38.038 4.758.076 7.137.051 3.34.058 6.677.055 10.017l.076 2.962c-.078 7.475-2.63 11.728-7.871 16.974-4.88 4.125-8.433 7.12-14.944 7.136l-3.188.015h-3.529l-3.728.013c-3.425.011-6.85.017-10.276.022-3.69.006-7.38.018-11.07.029-6.396.018-12.793.033-19.19.045-9.25.019-18.5.043-27.75.07-15.007.043-30.014.082-45.022.118l-2.724.006a840797.91 840797.91 0 0 1-41.012.098l-2.722.007c-14.95.036-29.902.076-44.853.119-9.232.026-18.463.048-27.695.067-6.32.012-12.64.028-18.96.047-3.651.011-7.303.02-10.955.025-3.95.005-7.899.018-11.848.032h-3.536l-3.18.015-2.766.007c-2.045-.098-2.045-.098-3.052 1.129-.11 2.897-.162 5.774-.176 8.672a5576.72 5576.72 0 0 1-.072 5.39c-.035 2.842-.064 5.684-.078 8.526a784.6 784.6 0 0 1-.1 8.209l.006 2.564c-.106 5.14-.7 7.914-4.58 11.639-4.755 3.07-9.561 3.096-15 2-5.462-2.261-10.488-5.444-15.528-8.506-3.41-2.06-6.861-4.046-10.314-6.034-3.09-1.78-6.168-3.58-9.245-5.382L139 666l-1.932-1.203c-2.774-1.07-4.252-.677-7.068.203-2.242 1.142-2.242 1.142-4.406 2.625l-2.485 1.63L120.5 671l-2.703 1.766c-3.946 2.594-7.839 5.211-11.578 8.097-6.042 4.64-10.593 7.138-18.367 7.04-4.198-1.329-7.138-3.414-9.852-6.903-.94-3.425-.82-6.68-.684-10.21l.03-2.935c.04-3.078.127-6.153.216-9.23.036-2.092.068-4.185.096-6.277.077-5.118.198-10.232.342-15.348l-1.904.027c-2.881.035-5.762.057-8.643.078l-2.995.043c-7.888.045-14.168-.98-21.458-4.148l-2.617-1.098C33.743 628.852 27.536 624.767 22 620v-2l-1.875-.687C17.385 615.62 16.95 614.008 16 611h-2c-4-6.75-4-6.75-4-9H8l-1-6-3-1-1-10H1c-.9-5.382-1.146-10.559-1.14-16.01l-.009-2.694c-.008-2.983-.01-5.965-.012-8.948l-.015-6.476c-.014-5.935-.022-11.87-.028-17.806-.006-5.09-.016-10.18-.027-15.27-.033-16.77-.054-33.539-.073-50.308l-.015-13.101a154512.013 154512.013 0 0 1-.086-100.23l-.002-2.366c-.016-25.29-.054-50.581-.105-75.872a45104.554 45104.554 0 0 1-.097-91.282c-.005-11.625-.03-23.25-.062-34.876a9323.796 9323.796 0 0 1-.03-35.094c.006-6.331.003-12.662-.028-18.993a2031.9 2031.9 0 0 1-.004-17.417c.003-2.09-.004-4.182-.022-6.273C-.904 53.786 1.88 38.132 14 24l1.492-1.937C22.45 13.257 31.744 7.308 42 3l3.56-1.558C53.146-1.035 61.311-.424 69.205-.4zM84 25v468c5.854 1.464 9.54 2.251 15.29 2.263l2.094.012c2.302.012 4.604.009 6.906.006a4317.8 4317.8 0 0 0 18.776.04c4.95.003 9.899.018 14.849.031 10.815.027 21.631.04 32.447.048 6.753.006 13.505.014 20.258.023a59571.24 59571.24 0 0 0 59.714.053l3.633.002 7.287.002 3.65.002c19.54.008 39.08.043 58.62.09 20.062.047 40.123.072 60.184.074 11.264.002 22.528.013 33.792.05 9.587.03 19.173.04 28.76.024 4.892-.008 9.784-.006 14.676.022 4.478.026 8.955.023 13.433-.001 1.62-.004 3.24.002 4.86.02 9.707.388 9.707.388 18.192-3.642 5.633-6.008 4.85-13.273 4.79-21.023l-.004-3.626c-.005-3.28-.02-6.562-.037-9.843-.017-3.477-.02-6.954-.026-10.431-.012-7.378-.037-14.756-.065-22.134-.04-10.977-.071-21.954-.092-32.931-.01-4.733-.028-9.466-.049-14.198-.042-13.239.1-26.444.5-39.676.73-24.384.602-48.753.461-73.146-.035-6.328-.063-12.657-.092-18.985-.049-10.616-.102-21.231-.159-31.846a71721.007 71721.007 0 0 1-.176-34.448 338593.018 338593.018 0 0 1-.144-29.822l-.018-3.879c-.036-7.454-.074-14.908-.113-22.362l-.054-10.555c-.023-4.475-.048-8.949-.074-13.423-.058-10.247-.071-20.49.02-30.736l.04-5.61c.024-3.419.067-6.838.122-10.257l.033-4.545.053-3.915C505.692 37.584 503.513 32.706 498 28l-1.73-1.614c-3.147-1.921-5.49-1.759-9.165-1.755l-2.113-.01c-2.346-.009-4.692.005-7.038.018a3001.554 3001.554 0 0 0-19.063.013c-5.1.013-10.199.009-15.298.006-9.907-.001-19.813.013-29.719.032-11.455.021-22.91.024-34.364.026-30.253.016-60.507.058-90.76.097L84 25z"/><path fill="#433117" d="M257.625 103.75c20.694 15.87 20.694 15.87 24.734 25.484 1.842 4.044 3.028 6.108 6.641 8.766 6.532 1.18 13.128.638 19.715.227 5.526-.34 9.969.273 15.285 1.773l.625-3.75c3.242-14.42 11.927-25.538 24.168-33.367C352.805 100.527 356.441 98.9 361 98l2.457-.492c6.03-.908 11.17-.556 16.543 2.492 4.307 3.45 7.236 7.028 8.125 12.563.145 4.427-.801 7.614-3.125 11.437-4.49 4.062-9.057 5.291-15 5-3.118-.746-6.044-1.763-9-3-5.71 5.075-5.71 5.075-8.168 12 .305 6.51 2.81 11.238 7.168 16 3.852 3.217 7.902 6.108 12 9 13.402 9.879 22.41 26.72 25 43 1.467 12.698 1.467 12.698 0 18l1.873-.2c37.297-3.873 37.297-3.873 49.885 5.184 6.337 5.359 10.588 10.729 12.242 19.016.709 8.577 0 15.361-4 23l-1.285 2.488c-10.357 18.55-29.45 32.074-49.727 37.992L404 312l-2.082.613c-6.6 1.748-13.132 1.576-19.918 1.387l.105 3.566c.554 27.35-3.26 51.342-21.546 72.774-15.68 16.302-37.057 24.995-59.559 25.66l-2.201.078c-11.514.364-22.373-.308-33.697-2.422-9.851-1.702-15.895.963-24.102 6.344a172.102 172.102 0 0 0-8.598 6.623C227.91 430.272 224.826 432 219 432c-3.338-.564-4.242-1.193-7.063-3.438-2.473-3.548-2.495-6.717-1.851-10.906 1.417-4.12 3.931-7.016 6.809-10.234 2.31-2.658 4.202-5.462 6.105-8.422l-2.055-2.203A980.675 980.675 0 0 1 212 387l-2.676-2.941C197.734 370.809 192.508 356.82 188 340l-2.453.973c-8.431 2.442-19.358 2.677-27.36-1.16C150.5 335.118 145.469 328.666 143 320c-1.303-11.8 1.408-21.298 8.633-30.637C153 288 153 288 155 288l.813-1.938C157 284 157 284 160 283v-2c3.462-3 3.462-3 6-3l-2.188-2.188c-1.76-1.76-3.511-3.53-5.25-5.312-2.51-2.54-2.51-2.54-5.324-4.664C137.492 252.772 127.452 231.776 124 212c-.988-11.301 2.28-20.921 9-30 7.062-7.979 18.552-14.317 29.223-15.18 18.225-.52 35.729 6.63 49.152 18.868l2.422 2.289c2.584 2.373 5.21 4.211 8.203 6.023l.281-3.016c.626-4.326 2.239-7.867 4.219-11.734l1.081-2.115C235.307 162.519 246.922 152.638 262 146c-1.31-2.923-2.713-4.787-5-7a402.042 402.042 0 0 1-3.125-4.313c-3.671-4.783-7.738-7.638-12.875-10.687l-2.688-2c-3.319-1.435-4.927-.191-8.312 1-5.451.676-10.357.943-15.063-2.188-4.058-3.476-4.8-6.401-5.312-11.687.143-4.458 1.442-7.756 4.375-11.125 13.071-10.008 31.626-2.686 43.625 5.75z"/><path fill="#f6e8c5" d="M83.065 519.64a3150.364 3150.364 0 0 1 19.572.013c5.16.012 10.319.007 15.478.005 8.935-.001 17.87.008 26.804.025 12.918.024 25.836.032 38.754.036 20.959.006 41.918.026 62.877.055 20.358.027 40.716.048 61.074.061l3.803.003 18.89.011c52.228.031 104.456.084 156.683.151l-1.249 3.225-1.638 4.287-.82 2.114c-2.66 6.994-4.154 13.972-5.293 21.374l-.434 2.645c-2.483 19.469.801 39.77 9.434 57.355v2a162232.596 162232.596 0 0 1-124.998.111c-13.89.01-27.78.025-41.672.043-14.247.019-28.494.03-42.741.034-8.795.003-17.59.012-26.386.028-6.026.01-12.053.014-18.08.011-3.48-.001-6.96 0-10.44.011-3.768.01-7.537.008-11.306.003l-3.349.017-3.054-.012-2.637.002c-2.562-.272-4.168-.874-6.337-2.248-1.265-2.53-1.118-4.272-1.11-7.105l-.002-3.226.007-3.501c-.014-2.432-.029-4.863-.045-7.295-.023-3.845-.037-7.69-.025-11.534.009-3.704-.02-7.405-.055-11.109l.037-3.482-.05-3.255-.004-2.855c-.885-3.102-2.243-4.748-4.827-6.675-3.812-1.906-7.786-1.655-11.967-1.61l-3.018-.027a831.578 831.578 0 0 0-9.847.01c-2.287-.003-4.573-.008-6.86-.015-4.787-.007-9.575.004-14.363.027-6.134.029-12.267.012-18.4-.018-4.72-.018-9.44-.012-14.16 0-2.262.004-4.523 0-6.785-.011-3.162-.013-6.323.006-9.485.034l-2.825-.03c-4.372.07-7.307.29-10.781 3.092-3.358 3.565-3.565 5.172-3.64 9.953l-.06 3.397-.051 3.68-.063 3.758c-.055 3.298-.105 6.596-.153 9.894-.05 3.365-.106 6.73-.161 10.094A13586.2 13586.2 0 0 0 77 613c-1.763.018-3.526.03-5.289.042l-2.974.023c-10.86-.258-20.216-6.627-27.924-13.753-8.617-9.08-12.46-20.214-12.942-32.636C28.384 553.79 33.482 542.59 42 533c2.513-2.302 5.111-4.199 8-6l1.742-1.14c10.15-6.269 19.854-6.285 31.323-6.22z"/><path fill="#cd7835" d="M57.182 26.405 59 27l-.016 3.301c-.018 4.06-.03 8.118-.039 12.178-.005 1.753-.012 3.507-.02 5.26-.013 2.527-.018 5.054-.023 7.581l-.015 2.359c0 4.236.388 8.136 1.113 12.321-.22 1.968-.444 3.936-.733 5.894-.45 3.552-.411 7.093-.392 10.668l-.012 2.17.004 2.147.004 1.893c.103 2.426.103 2.426.667 5.583.451 3.558.347 6.528-.007 10.086-.705 8.525-.448 16.988-.213 25.53.56 21.05.723 42.027.296 63.08-.14 6.964-.257 13.928-.37 20.892l-.034 2.16c-.38 23.7-.322 47.403-.282 71.105.012 6.968.016 13.935.02 20.902.007 12.415.017 24.83.031 37.246l.003 2.215a550368.398 550368.398 0 0 0 .039 33.765l.002 2.267c.014 12.463.023 24.925.03 37.388.005 7.628.013 15.256.026 22.884.009 5.795.013 11.59.016 17.385.002 2.373.005 4.747.01 7.12.008 3.23.009 6.462.009 9.693l.01 2.853c-.013 8.42-.013 8.42-1.124 12.074-1.623 1.207-1.623 1.207-3.719 2.027l-2.314.953-2.467.957c-7.588 3.143-14.15 6.61-20.602 11.731C27 514 27 514 25 514a100173.194 100173.194 0 0 1-.44-192.664l-.003-2.045c-.034-21.86-.094-43.72-.167-65.579a26273.97 26273.97 0 0 1-.143-69.335c-.01-13.838-.045-27.675-.11-41.513-.043-9.494-.055-18.988-.045-28.483.005-5.474-.003-10.948-.046-16.423-.039-5.02-.04-10.04-.013-15.06A342.4 342.4 0 0 0 24 77.473c-.198-15.072 3.535-26.083 13.186-37.912 13.941-14.28 13.941-14.28 19.995-13.157z"/><path fill="#edb94e" d="M353 175c3.473 2.857 6.921 5.717 10 9v2h2c8.737 14.144 15.002 27.849 11.117 44.867-4.24 14.8-13.88 27.25-27.387 34.79-20.422 10.05-42.754 11.225-64.347 4.16-10.94-4.301-21.454-11.062-29.383-19.817v-2h-2c-9.545-12.81-14.568-27.426-12.492-43.477 1.877-9.622 6.353-17.909 12.492-25.523h2l1-3c27.67-23.958 68.63-22.633 97-1z"/><path fill="#ce7935" d="M102 575h68v77c-3.238 0-4.238-.49-6.984-2.047l-2.336-1.312-2.43-1.391-2.383-1.344c-5.995-3.386-5.995-3.386-8.854-5.092-5.524-3.275-10.064-4.787-16.423-3.22-5.636 2.072-10.58 5.105-15.559 8.43-4.266 2.781-8.664 5.356-13.031 7.976v-79z"/><path fill="#b9dece" d="M188.18 195.82c9.85 5.42 17.85 12.857 25.578 20.93 2.226 2.382 2.226 2.382 5.242 4.25.509 2.44.877 4.785 1.188 7.25 1.866 11.965 8.205 21.472 15.812 30.75-2.224 5.802-7.725 9.517-13.073 12.297-5.879 2.145-12.26-.44-17.927-2.297l-2.176-.658c-21.664-6.565-39.273-19.306-50.347-39.381-4.502-9.027-5.678-17.886-4.477-27.961 1.692-4.639 3.853-6.418 8.219-8.633 10.751-4.334 22.06-1.569 31.96 3.453z"/><path fill="#edbb52" d="m217 315 1.309 1.77C234.22 337.754 258.129 351.328 284 356l2.312.422c21.57 3.778 43.607 3.97 64.688-2.422-2.698 11.55-8.496 19.073-18.203 25.855-16.582 10.266-45.588 6.359-63.762 2.297-18.927-4.746-39.683-14.222-50.598-31.277-3.648-6.14-3.631-12.833-3.625-19.813l-.001-2.119c.05-4.98.62-9.235 2.189-13.943z"/><path fill="#edbb51" d="M250 275c4.182 1.238 7.376 2.752 10.938 5.25 20.792 13.56 47.173 16.6 71.257 12.188 6.762-1.055 6.762-1.055 9.797.742 6.754 6.08 12.94 12.506 14.008 21.82-22.042 11.947-53.38 9.301-76.69 2.697-13.176-3.975-28.165-11.486-36.025-23.267-1.72-3.252-1.917-4.776-1.285-8.43 2.225-4.029 4.742-7.742 8-11z"/><path fill="#baddce" d="M403.745 245.904c2.92-.074 5.835-.09 8.755-.092l2.973-.037c7.323-.014 14.477.046 20.59 4.412 2.59 3.76 2.75 5.304 1.937 9.813-3.21 7.248-7.768 12.248-14 17l-2.535 2.031c-6.414 4.947-12.85 8.252-20.465 10.969l-2.785 1.047c-4.089 1.212-8.114 1.811-12.34 2.328l-2.418.363c-5.826.71-5.826.71-8.809-1.41L373 290l-1.703-2.29-1.547-2.335-1.578-2.352C367 281 367 281 367 279a71.54 71.54 0 0 1 3.813-2.75c9.027-6.845 16.383-16.326 19.601-27.238 1.918-2.433 2.53-2.412 5.516-2.793 2.604-.158 5.207-.224 7.815-.315z"/><path fill="#463315" d="M346.688 234c4.44 1.92 4.44 1.92 6.312 4 .741 4.817-.032 8.246-2.684 12.367-5.631 6.985-13.73 8.656-22.128 10.446-6.809.651-15.315.091-21-4C305 254 305 254 304.438 250.375c.59-3.544.832-4.274 3.562-6.375a96.261 96.261 0 0 1 8.5-.438c9.191-.304 16.904-1.656 24.375-7.375C344 234 344 234 346.688 234z"/><path fill="#bbddce" d="M203 290c-.76 4.6-3.396 8.122-5.858 11.992-1.563 2.464-3.088 4.904-4.431 7.496-2.705 5.167-5.69 7.05-11.219 8.887-5.244 1.315-8.21 1.37-12.93-1.375L166 315c.153-8.41 3.973-12.918 9.738-18.762 8.546-7.799 16.174-9.859 27.262-6.238z"/><path fill="#432e13" d="M311.938 215c2.443 3.555 2.731 5.618 2.492 9.844-.642 3.22-2.037 4.968-4.43 7.156-3.606 1.202-6.21 1.327-10 1-3.036-1.821-4.606-3.32-6.375-6.375-.79-3.316-.58-5.351.375-8.625 1.703-2.642 2.956-4.496 5.813-5.875 4.79-.274 8.109.14 12.125 2.875z"/><path fill="#442f14" d="M354 209c3.053 2.655 4.625 4.28 5.484 8.223.247 4.102-.186 6.29-2.359 9.84-4.396 2.725-8.084 2.955-13.125 1.937-3.764-2.535-4.758-4.152-6-8.5 0-3.961.54-5.446 3-8.5 4.234-3.705 7.543-4.637 13-3z"/><path fill="#fff" d="m73 639 2 1z"/></svg>