<svg height="1024" width="1536" xmlns="http://www.w3.org/2000/svg"><path d="m0 0h1536v1024c-506.88 0-1013.76 0-1536 0 0-337.92 0-675.84 0-1024z" fill="#fcefce"/><path d="m0 0c12.51759361 8.768779 18.10006779 22.40115797 20.97460938 37.04956055.90673629 6.39163005.70389982 12.87937809.71289062 19.32543945.00233643.75817017.00467285 1.51634033.00708008 2.29748535.01287431 11.0689799-.63642355 21.73825204-2.60083008 32.65563965-.91212245 4.97127485-.91212245 4.97127485-.65625 9.984375 2.47587909 2.20828626 2.47587909 2.20828626 5.8125 3.875 1.20640007.68664928 2.41080083 1.37682191 3.61328125 2.0703125.60537598.34321289 1.21075195.68642578 1.83447266 1.04003906 31.17249282 18.18030876 51.22363706 49.9970629 60.73974609 84.01464844 1.23970191 4.96091418 2.18081488 9.95255935 3 15 .17200928.89090332.34401855 1.78180664.52124023 2.69970703.54528316 3.75886674.64078529 7.44503902.64672852 11.23388672.0033284.75499283.0066568 1.50998566.01008606 2.28785706.00504461 1.59601741.00740909 3.19204529.00724792 4.78807067.00216253 2.3895922.02027756 4.77870366.03930665 7.1682129.05256986 13.71041518-1.25629883 26.76475608-5.03710938 40.00976562-.26570801.94560791-.53141602 1.89121582-.80517578 2.86547852-1.98162556 6.89181145-4.21947843 13.49729674-7.38232422 19.94702148-.57363281 1.1859375-1.14726563 2.371875-1.73828125 3.59375-4.47657235 8.95773017-9.85545546 16.72874384-16.26171875 24.40625-.7425.89589844-1.485 1.79179688-2.25 2.71484375-8.01764788 9.2918812-17.61779969 16.44976732-27.75 23.28515625.20681396.57967529.41362793 1.15935059.62670898 1.7565918.94048371 2.64238681 1.87568115 5.28661512 2.81079102 7.9309082.32548828.91201172.65097656 1.82402344.98632812 2.76367188.31259766.88623046.62519532 1.77246093.94726563 2.68554687.2880249.81170654.5760498 1.62341309.87280273 2.4597168.77112526 2.45131679 1.29792577 4.87670432 1.75610352 7.40356445.85464844.26039063 1.70929688.52078125 2.58984375.7890625 3.53336112 1.25468723 6.66243879 2.82918246 9.97265625 4.5859375 13.6610383 7.02905957 27.81192989 9.80526892 43.0625 10.25 1.09957031.03867187 2.19914062.07734375 3.33203125.1171875 2.68083334.09324638 5.36167765.17904517 8.04296875.2578125.26425781-.89847656.52851562-1.79695313.80078125-2.72265625 1.79111234-4.89492916 4.84207359-8.34920873 8.19921875-12.27734375.5259375-.62261719 1.051875-1.24523437 1.59375-1.88671875 6.96741235-7.59926102 15.79562882-11.85220449 25.484375-14.8515625 1.2153241-.37909012 1.2153241-.37909012 2.4552002-.76583862 11.86170186-3.61923945 23.90654744-6.58816312 35.93121719-9.60922242 2.05789882-.51729881 4.11537497-1.03624977 6.17275619-1.55560302 18.26951307-4.6094805 36.5545389-9.16112824 54.88027954-13.5421753 2.17711742-.52125153 4.35340815-1.04596945 6.5288086-1.57434082 3.00925623-.72895426 6.02170364-1.44273838 9.03564453-2.15203857.86393875-.21167816 1.7278775-.42335632 2.61799622-.64144897 6.85459336-1.58302498 13.87123871-2.65021976 20.61247253-.23355103 6.05084166 4.08080019 9.26089004 9.08308776 12.625 15.375.43892578.80574463.87785156 1.61148926 1.33007812 2.44165039 2.81402499 5.19524295 5.5102989 10.44063417 8.11132813 15.74584961 2.95041092 5.9150407 6.05787141 11.74766667 9.1640625 17.58203125 1.53562095 2.89075466 3.02111234 5.79503679 4.4453125 8.7421875.58136719 1.17175781 1.16273438 2.34351563 1.76171875 3.55078125.48984375 1.02351563.9796875 2.04703125 1.484375 3.1015625 1.58221017 2.47670009 1.58221017 2.47670009 4.3046875 3.09765625 12.49361736.63455167 25.22851812 1.1115619 37.4609375-1.82421875 1.72669922-.36738281 1.72669922-.36738281 3.48828125-.7421875 14.97513692-3.51441427 31.31208237-10.37832157 40.51171875-23.2578125 1.15446228-2.30426948 2.08229724-4.58499273 3-7-1.155-.28875-2.31-.5775-3.5-.875-22.53380683-7.51126894-43.33821497-28.34407297-55.5-48.125-.67289063-1.05058594-1.34578125-2.10117187-2.0390625-3.18359375-14.36333492-23.54145048-20.18334328-50.76268949-20.2734375-78.06640625-.00261841-.7567804-.00523682-1.51356079-.00793457-2.29327393-.00452975-12.22871466.95898814-23.64285852 4.32043457-35.45672607.26554688-1.03253906.53109375-2.06507813.8046875-3.12890625 4.64692191-15.91017551 12.94438875-30.93814661 23.1953125-43.87109375.75152344-.97195313 1.50304687-1.94390625 2.27734375-2.9453125 16.10641786-20.32409143 35.44773587-33.29449792 58.984375-43.5859375.64928467-.28423828 1.29856934-.56847656 1.9675293-.86132812 1.77075195-.60742188 1.77075195-.60742188 4.77075195-.60742188-.45073863-2.30141843-.90965065-4.60070318-1.37890625-6.8984375-.42571699-2.12590747-.82822451-4.25655652-1.2109375-6.390625-1.96422302-10.29764259-4.99524929-20.27228013-11.41015625-28.7109375 0-.66 0-1.32 0-2-1.485.495-1.485.495-3 1-10.65080181 1.00262178-20.58632447-1.11608366-29-8-6.85590923-6.76706375-10.09513336-12.19972543-10.5-21.875.19286579-7.56998242 1.86368763-12.6049876 7.33203125-17.8984375 8.07475702-6.5298824 15.88007687-8.20765947 26.16796875-7.2265625 12.94539233 2.50960756 22.94955449 11.30522942 30.5625 21.625 13.54196178 20.20497714 20.25670802 45.08531362 19.4375 69.375 1.14291504-.16226074 2.28583008-.32452148 3.46337891-.49169922 4.38953063-.5464471 8.70360352-.65320287 13.12255859-.64111328 1.17449203-.00143509 1.17449203-.00143509 2.37271118-.00289917 1.63862184-.0006753 3.27724646.00113319 4.91586304.00534058 2.51454576.00540129 5.02891643.00001084 7.54345703-.00634766 1.59765664.00066005 3.19531318.00193969 4.79296875.00390625.75203705-.00202423 1.5040741-.00404846 2.27890015-.00613403 5.28018117.02395594 5.28018117.02395594 7.51016235 1.13894653.09410156-1.11761719.18820312-2.23523438.28515625-3.38671875.64635562-5.10251272 2.29518478-9.65029349 4.15234375-14.42578125.35199463-.90999756.70398926-1.81999512 1.06665039-2.75756836 9.72184631-24.46449367 23.81009883-47.87175713 48.79272461-58.88305664 10.37921979-3.59475417 21.40077378-4.51359984 31.5234375.265625.71929688.391875 1.43859375.78375 2.1796875 1.1875.65742187.350625 1.31484375.70125 1.9921875 1.0625 5.70694094 3.52703646 8.82824835 8.77990045 10.640625 15.16796875 1.13410471 6.81669322-.25005117 13.35971763-4.21875 19.0390625-4.72820597 5.56441707-9.59467988 9.66064185-16.4140625 12.41796875-1.5159375.62455078-1.5159375.62455078-3.0625 1.26171875-6.53928449 2.33918554-12.49424859 2.07606683-19.34375 1.74804687-3.89215354-.08757345-6.01212939-.04898072-9.41015625 2.00585938-8.65175388 9.10059263-13.62011171 19.73889712-18.18359375 31.296875.66773438.09925781 1.33546875.19851563 2.0234375.30078125 3.7308165.87639915 7.11521152 2.33230793 10.6015625 3.88671875.71075684.31606201 1.42151367.63212402 2.15380859.95776367 17.76175204 7.99700689 32.63447782 18.90081426 46.22119141 32.85473633.48339844.43828125.96679688.8765625 1.46484375 1.328125 21.05358962 19.61699174 31.40426753 47.45652504 37.96606445 74.68505859.39043042 1.96984212.39043042 1.96984212 1.5690918 2.98681641.556875-.68964844 1.11375-1.37929688 1.6875-2.08984375 7.25839184-8.93812104 14.36113613-17.61814385 23.3125-24.91015625 1.38445312-1.15822266 1.38445312-1.15822266 2.796875-2.33984375 11.90084661-9.72328518 25.19801526-17.05892991 40.203125-20.66015625.75796875-.18949219 1.5159375-.37898437 2.296875-.57421875 14.10666711-2.22200392 28.38294487-.92811062 40.453125 7.07421875 10.36285941 8.1875653 15.65275073 18.03810074 19.25 30.5.17740723.60714844.35481445 1.21429688.53759766 1.83984375 6.00124548 28.03538543-5.36155323 58.47317322-20.28759766 81.80078125-7.88186024 11.91857686-17.14661806 22.31045794-27.1875 32.421875-.5681543.57290771-1.13630859 1.14581543-1.72167969 1.73608398-4.0953778 4.07869476-4.0953778 4.07869476-6.34082031 5.20141602.95519531.35191406 1.91039062.70382812 2.89453125 1.06640625 17.97675468 6.78971428 30.27446866 15.64973934 38.57421875 33.26171875 3.8988755 9.34934432 3.88788929 19.86773906.59375 29.421875-5.34532579 12.20516055-14.05626307 18.45030389-26.0625 23.25-6.87868836 2.41947556-13.77677063 2.21999683-21 2 .31453125.8765625.6290625 1.753125.953125 2.65625 9.77796399 28.42092398 11.77571059 60.20661137 4.046875 89.34375-.18191895.70576172-.36383789 1.41152344-.55126953 2.13867188-6.36900269 24.06447126-18.80681722 45.42097792-35.57373047 63.73632812-.51046875.55961426-1.0209375 1.11922852-1.546875 1.69580078-2.67310602 2.86614444-5.29803676 5.17944571-8.578125 7.30419922-2.4819151 2.02790624-2.73656618 3.0438958-3.2734375 6.28515625-.61383366 22.82989019 8.56706928 45.07721171 18.69482422 65.08837891 2.42170986 5.11884105 2.2763914 10.19901612 1.82861328 15.75146484-1.27809481 3.22887109-2.48674761 4.54896002-5.0625 6.8125-4.95882505 2.0046314-9.93758279 2.05632848-15.08203125.56640625-12.9849751-5.76256291-21.34720986-20.70184063-26.48486328-33.34716797-4.51884857-11.93485022-7.0337377-24.5171964-9.37060547-37.03173828-.56203125.24234375-1.1240625.4846875-1.703125.734375-6.35825431 2.53550019-12.72847722 4.12237542-19.421875 5.453125-1.25151855.24991699-1.25151855.24991699-2.52832031.50488281-30.70139609 5.88876719-59.58363594.54817324-88.34667969-10.69238281-.69332412 9.19906087-1.08230382 18.33952005-.9921875 27.56640625.00787537.89842621.01575073 1.79685242.02386475 2.72250366.03628266 3.69922782.07894047 7.39816359.13970947 11.09707642.04247385 2.74767667.06577882 5.49500416.08642578 8.24291992.01862091.82407852.03724182 1.64815704.056427 2.49720764.03024398 6.87653641-1.17229558 12.4106506-5.8142395 17.74888611-4.74899598 4.03664659-4.74899598 4.03664659-8.6875 4.5-6.32462132-.6220939-10.84265335-2.98115863-15.125-7.6875-10.15953396-12.92027689-7.75604969-33.89829592-6.453125-49.49267578.59864385-4.81179689 1.60184487-9.48614059 2.765625-14.19482422.17644043-.71913574.35288086-1.43827148.53466797-2.17919922 1.42424011-5.78339191 1.42424011-5.78339191 2.19482422-8.6484375.86166212-3.23249271 1.27050781-5.78583856 1.27050781-9.17236328-1.92835022-1.77378325-1.92835022-1.77378325-4.5625-3.375-38.39768884-26.6019978-60.35176936-68.1196229-68.82324219-113.14428711-2.25762221-12.79289345-2.87344171-24.9669344-2.73925781-37.91821289.0100634-1.7141874.01918324-3.42838061.02734375-5.14257812.02171629-4.14012133.05605497-8.2799546.09765625-12.41992188h2c0-.66 0-1.32 0-2-.77601563.51949219-1.55203125 1.03898437-2.3515625 1.57421875-16.69975821 10.78110882-36.54781967 16.50110193-56.44140625 16.44140625-.97864014-.00225586-1.95728027-.00451172-2.96557617-.00683594-.73968018-.00290039-1.47936035-.00580078-2.24145508-.00878906.38631592.71728271.77263184 1.43456543 1.1706543 2.17358398 7.07924706 13.15404169 14.12906972 26.32082852 21.0168457 39.57641602.52746826 1.01505615 1.05493652 2.0301123 1.59838867 3.07592773.97286348 1.87748626 1.9427297 3.75653007 2.90893555 5.63745118.83687465 1.62647355 1.6815752 3.24895811 2.53613281 4.86621093 2.66421813 5.11931581 3.50330765 7.97985887 2.76904297 13.67041016-1.91607729 4.23133734-3.76921665 6.17795071-8 7.875-2.96918253 1.00905813-4.72464754 1.125-8 1.125-.48094555 8.817335 1.35897284 14.98828969 6.625 22.125 2.91523884 4.01077445 4.65998465 6.74527638 4.375 11.875-.69698516 3.29483892-1.80723874 5.44177853-4 8-8.04379321 4.5532344-17.36490262 6.6576205-26.25518799 8.96383667-4.08486501 1.05987351-8.16230767 2.14778506-12.24090576 3.23147583-.85662231.22680954-1.71324463.45361908-2.5958252.68730164-8.81064895 2.34000181-17.5805685 4.81982512-26.35299682 7.29844665-20.1005792 5.67327925-40.29040483 10.93408282-60.54420471 16.03027344-4.8150833 1.21661467-9.6113355 2.48267729-14.39759827 3.80819702-22.60127474 6.25865353-22.60127474 6.25865353-31.05078125 2.41796875-5.78807513-5.50573-8.98884294-12.01834481-12.25-19.1875-3.03516508-6.64041335-6.27920786-13.13392871-9.70703125-19.578125-4.38989366-8.26588697-8.6167902-16.60901262-12.79296875-24.984375-.31569757-.63289192-.63139515-1.26578384-.95665932-1.91785431-2.61860364-5.25117125-5.23199816-10.50493085-7.84522056-15.75878143-2.27200428-4.56730397-4.54586553-9.13367559-6.82312012-13.69836426-.47138618-.9448976-.47138618-.9448976-.9522953-1.90888405-4.93646013-9.88647584-10.01221311-19.69088976-15.19998741-29.44750023-19.03521729-35.96837915-19.03521729-35.96837915-19.03521729-44.95611572-1.29550781.04640625-2.59101562.0928125-3.92578125.140625-17.92330007.44336853-33.41354174-2.69133067-50.07421875-9.140625-.33 7.59-.66 15.18-1 23l8 1c6.78767324 2.32665287 12.09640771 5.92134338 16 12 1.65231649 4.95694948 1.60872155 9.21589604-.5 14-4.07831614 7.2816994-9.42708917 10.93489188-17.3125 13.4375-3.23244402.90569065-5.83143808 1.5625-9.1875 1.5625-.09941895.71760498-.19883789 1.43520996-.30126953 2.17456055-4.02045036 26.63602112-15.84600764 52.82806945-32.69873047 73.82543945-.43666992.5480127-.87333984 1.09602539-1.32324219 1.66064453-10.25748271 12.75723642-21.63176577 23.50160351-34.67675781 33.33935547-1.13115234.8971875-1.13115234.8971875-2.28515625 1.8125-1.71484375 1.1875-1.71484375 1.1875-3.71484375 1.1875.26554687.95777344.53109375 1.91554688.8046875 2.90234375 3.9874697 14.81167855 5.36725438 29.09735291 5.5078125 44.41015625.01772461 1.16821289.03544922 2.33642578.05371094 3.54003906-.00789114 9.28786902-.56997156 20.09859251-6.72949219 27.60839844-4.02494683 3.78479487-8.48737109 7.12015888-14.07421875 7.86328125-5.48105356-.32404877-8.81923036-2.22444724-12.5625-6.32421875-2.67256413-5.17413483-3.36614679-8.89482125-3.25-14.8125.01546875-1.30582031.0309375-2.61164062.046875-3.95703125.10584322-2.95250535.35988537-5.86070321.68359375-8.796875.72535455-6.83577804.87423675-13.69115577 1.08203125-20.55859375.04331131-1.35157242.08692902-2.70313506.13085938-4.0546875.10521496-3.27335444.20735541-6.54677375.30664062-9.8203125-.90878906.38671875-1.81757813.7734375-2.75390625 1.171875-37.55693659 15.69249623-78.80424028 16.88615142-117.24609375 3.828125-1.17433594-.39058594-2.34867188-.78117188-3.55859375-1.18359375-1.20849609-.40412109-1.20849609-.40412109-2.44140625-.81640625-.13462646 1.05574219-.13462646 1.05574219-.27197266 2.1328125-2.57053563 19.61674018-5.79211453 42.27072726-20.72802734 56.8671875-5.28008351 4.02513408-10.10021419 6.96600178-16.89453125 6.4609375-4.50852552-.98702414-7.8558617-3.08636975-10.98046875-6.5234375-2.93285695-5.05103141-2.78100105-10.2813688-2.125-15.9375 1.32932361-4.59855417 3.01734193-9.00761919 4.78775024-13.45184326 4.48309819-11.30162335 8.34237591-22.54878696 11.02474976-34.42315674.24766113-1.08611572.49532227-2.17223145.75048828-3.29125977 1.3305229-5.44959166 1.3305229-5.44959166.43701172-10.83374023-1.65126605-1.48342854-1.65126605-1.48342854-3.75-2.9375-34.40572394-26.06329009-55.03187615-64.69873536-61.25-107.0625-.18304688-1.04800781-.36609375-2.09601563-.5546875-3.17578125-3.03893898-26.09755497 1.04502263-52.14889212 9.5546875-76.82421875.23444824-.68819824.46889648-1.37639648.71044922-2.08544922 4.01169201-11.62173303 9.13702889-22.7628 14.28955078-33.91455078-.70511719-.1134375-1.41023438-.226875-2.13671875-.34375-15.29218036-3.50489263-31.36237803-14.38758641-42.86328125-24.65625-.85078125-.73089844-1.7015625-1.46179688-2.578125-2.21484375-18.62522411-16.25422165-35.70109104-39.46674992-38.421875-64.78515625-1.03590386-15.64954753 2.28298633-28.8990477 12.1875-41.25 8.35596562-9.00299835 19.56545202-13.98151236 31.6796875-14.98828125 26.63323821-.6571838 49.21722264 13.80519045 68.1328125 31.23828125 4.42697839 4.24080256 8.72883012 8.60300188 13 13-.5597238-2.82035586-1.13855019-5.63244932-1.75390625-8.44140625-7.34125471-36.06848534-.57182282-75.83583202 19.33203125-106.953125 18.51599101-27.94654235 44.28288379-48.4536673 75.421875-60.60546875h2c-4.52240439-11.94164845-10.07891717-22.67370805-20-31-.79019531-.73347656-1.58039063-1.46695313-2.39453125-2.22265625-5.79905358-3.76343778-14.32750988-1.90126942-20.890625-1.62109375-11.76979959.30406371-21.93997063-1.94939322-30.71484375-10.15625-5.66726457-5.60401385-8.0196909-10.31392474-8.375-18.375.20447998-7.95319486 2.88528894-12.47864321 8.5625-17.9375 8.88067135-7.2907447 18.35798246-7.67005587 29.48583984-6.94189453 19.83944468 2.16922364 35.35030715 14.77889639 47.95166016 29.37939453 9.39821528 12.05162761 27.375 35.50495912 27.375 50.875.54712646-.14002441 1.09425293-.28004883 1.65795898-.42431641 7.78679399-1.79128729 15.44278131-1.97191935 23.40454102-1.95068359 1.04556061-.00018127 1.04556061-.00018127 2.11224365-.00036621 18.40693689.04512404 36.30200783 2.66280448 53.82525635 8.37536621.0879568-4.145697.14071153-8.29115012.1875-12.4375.03770508-1.74700195.03770508-1.74700195.07617188-3.52929688.13085591-9.89524893.13085591-9.89524893-3.26367188-19.03320312-2.53721551-1.90389536-2.53721551-1.90389536-5.625-2.6875-8.92240917-3.15732595-15.87318889-7.50293833-21.375-15.3125-.41378906-.57105469-.82757813-1.14210937-1.25390625-1.73046875-3.82411102-6.24915703-3.63943421-13.17864137-2.74609375-20.26953125 2.23399733-7.915654 7.0075144-12.88004122 14-17 11.07418482-5.43042338 21.42848113-3.59490697 31.5625 2.6875z" fill="#4e3917" transform="translate(549.5625 187.6875)"/><path d="m0 0c1.29719971.32145996 1.29719971.32145996 2.62060547.64941406 23.29542803 5.81433572 45.2021851 15.23006697 62.37939453 32.35058594.83917969.8353125 1.67835938 1.670625 2.54296875 2.53125.81082031.8146875 1.62164063 1.629375 2.45703125 2.46875.69480469.68578125 1.38960937 1.3715625 2.10546875 2.078125 18.16580041 18.94969048 28.14831457 46.89039313 28.89453125 72.921875.03641602.81645996.07283203 1.63291992.11035156 2.47412109 1.25152655 30.02086158-6.25875976 60.88634712-26.77832031 83.72509766-21.12122109 22.43249907-50.63489032 35.93076382-81.61206055 36.98974609-3.9135943.08572472-7.82539018.09241055-11.73974609.07177735-2.41098255-.01071223-4.82121775-.00004683-7.23217773.01269531-39.65462559.03909186-79.07910657-13.97417571-107.93164063-41.4609375-20.31215083-20.28397863-29.87993697-45.81520528-30.19140625-74.25.29781371-33.4832649 12.93482289-63.92708817 35.375-88.5625.60328125-.67417969 1.2065625-1.34835937 1.828125-2.04296875 14.81946614-15.71870559 35.73410278-25.06475045 56.171875-30.95703125.66016113-.19207031 1.32032227-.38414062 2.00048828-.58203125 21.40727748-5.83177198 47.81861504-3.97652642 68.99951172 1.58203125z" fill="#f1b936" transform="translate(518 300)"/><path d="m0 0c1.23943359.28206299 1.23943359.28206299 2.50390625.56982422 19.23718064 4.55903772 37.66739031 12.11419913 52.49609375 25.43017578.50289551.45068848 1.00579102.90137695 1.52392578 1.36572266 22.28635897 20.28277367 37.33277388 49.56135582 40.47607422 79.63427734.16574178 4.54237227.18509521 9.07994478.1875 13.625.01224609 1.19496094.02449219 2.38992188.03710938 3.62109375.02092955 12.87865465-1.97271288 24.60989308-6.22460938 36.75390625-.33644531.98742187-.67289063 1.97484375-1.01953125 2.9921875-8.87404465 23.64321437-29.17017885 40.69130892-50.98046875 52.0078125-.63389648.34248779-1.26779297.68497559-1.92089844 1.0378418-31.66288256 16.66613246-76.49724211 16.42156178-109.94799804 6.07617187-12.16785747-4.00141213-23.64189477-8.65572605-34.13110352-16.11401367-1.02738281-.70898438-2.05476562-1.41796875-3.11328125-2.1484375-5.70566689-4.01644149-5.70566689-4.01644149-7.88671875-5.8515625 0-.66 0-1.32 0-2-.58523438-.25523437-1.17046875-.51046875-1.7734375-.7734375-13.77105164-7.58615827-23.68808262-30.28957656-27.98876953-44.79785156-2.62800901-9.62968935-5.03531894-19.41299557-5.23779297-29.42871094-.02433105-.65581055-.04866211-1.31162109-.07373047-1.98730469-1.07441366-30.39055781 6.96200788-60.31892024 27.53076172-83.34863281 2.47672455-2.59466382 5.00249314-5.13201301 7.54296875-7.6640625.49242187-.55042969.98484375-1.10085938 1.4921875-1.66796875 27.4318364-30.14402362 78.97432274-35.93738537 116.5078125-27.33203125z" fill="#f2b936" transform="translate(1057 315)"/><path d="m0 0c.59518433 1.16063965.59518433 1.16063965 1.20239258 2.34472656 9.65689406 18.84563095 9.65689406 18.84563095 19.73510742 37.46777344 3.52031232 6.32264941 6.87777 12.69279715 10.078125 19.18286133 5.53966669 11.2186695 11.3851709 22.27607315 17.609375 33.12963867 3.50554209 6.1172591 6.55333985 12.37002622 9.4855957 18.77929688 2.46379918 5.33503235 5.25732241 10.38054909 8.34643555 15.38476562 1.79678894 3.15688993 3.13243579 6.36383527 4.54296875 9.7109375-1.07443359.26103516-2.14886719.52207031-3.25585938.79101562-27.44896602 6.67093367-27.44896602 6.67093367-54.86914062 13.45898438-.647341.16162628-1.29468201.32325256-1.9616394.48977661-9.60528532 2.4011325-19.19264544 4.86738882-28.75173951 7.44674683-4.71752575 1.25573782-9.31679477 2.15254281-14.16162109 2.81347656-2.07924037.60030157-2.07924037.60030157-3.875 1.375-2.93030625 1.18433211-5.88124223 2.23709458-8.8828125 3.2265625-.79809082.26377441-1.59618164.52754883-2.41845703.79931641-.60183106.19770996-1.20366211.39541992-1.82373047.59912109-.38220703-.79470703-.76441406-1.58941406-1.15820312-2.40820312-12.25430784-25.46713555-24.76925817-50.75561158-38.15429688-75.65429688-2.53843898-4.73455735-4.99005531-9.49978196-7.375-14.3125-3.58341356-7.23091475-7.27927805-14.40135224-11-21.5625-.8202063-1.58143799-.8202063-1.58143799-1.65698242-3.19482422-2.81810345-5.41326246-5.68762673-10.76984421-8.78369141-16.0300293-.87182617-1.83764648-.87182617-1.83764648-.87182617-4.83764648.58056656-.14145447 1.16113312-.28290894 1.7592926-.4286499 6.11773792-1.49092028 12.23491519-2.98412498 18.35179138-4.47857666 2.27394947-.55525738 4.54803482-1.10995861 6.82226563-1.6640625 11.39333694-2.77629588 22.77499459-5.56713416 34.09423828-8.6328125 3.78767497-1.0141947 7.58800304-1.91963679 11.40991211-2.79589844 12.31957868-2.86058329 24.56056019-5.91380627 36.71264648-9.42553711 3.04206512-.86629246 5.66965385-1.57446289 8.84985352-1.57446289z" fill="#d47d23" transform="translate(822 544)"/><path d="m0 0c2.74944893 1.37472446 3.1358381 3.00581384 4.5 5.75 19.6382001 36.54494791 60.53039782 60.14558596 98.99511719 72.06640625 22.39738476 6.72009965 46.05836105 11.74557627 69.50488281 12.18359375 1.46397217.0306958 1.46397217.0306958 2.95751953.06201172 18.32175756.32530193 36.82813089.22016605 54.90185547-3.12451172 6.48973635-1.1232236 12.82013571-1.16334576 19.390625-1.0625 1.70736328.01353516 1.70736328.01353516 3.44921875.02734375 2.76716006.02325345 5.53384885.05592757 8.30078125.09765625-2.5880111 12.34413189-6.72224033 23.55767514-12 35-.45511963 1.01030273-.45511963 1.01030273-.91943359 2.04101562-4.09736536 8.96885565-7.18115156 12.31700568-16.22851563 15.78149415-52.57722128 18.46191966-120.25447923 9.25890698-169.69116211-14.44091797-14.01505585-6.94478603-28.3538993-15.00575266-40.16088867-25.3815918 0-.66 0-1.32 0-2-.59079346-.26699707-1.18158691-.53399414-1.7902832-.80908203-3.72815179-2.00927239-6.43479792-5.07802782-9.3972168-8.06591797-.669104-.67401855-1.33820801-1.34803711-2.02758789-2.04248047-9.50631514-9.73043937-21.80409915-23.4461568-24.78491211-37.08251953.37345131-2.77338257.84092606-5.1988804 1.5625-7.875.18836426-.7417749.37672852-1.4835498.57080078-2.24780273 3.44105951-13.2704474 7.92240344-26.1001855 12.86669922-38.87719727z" fill="#f0b836" transform="translate(308 585)"/><path d="m0 0c8.85556224 8.2020384 12.79747187 23.60277149 16.5625 34.6875.34635498 1.00248779.69270996 2.00497559 1.04956055 3.0378418 3.27079586 9.97806104 3.0251162 16.80436765-1.61206055 26.2746582-4.73790356 9.20843107-10.08857 17.23530704-17 25-.47566406.5465625-.95132812 1.093125-1.44140625 1.65625-21.62175904 24.77378018-50.248566 40.7853555-82.05859375 48.53125-1.019729.24999756-2.03945801.49999512-3.09008789.75756836-15.03081347 3.54377249-29.4059928 4.46215346-44.78491211 4.42993164-.97410828-.00054382-1.94821655-.00108765-2.95184326-.00164795-21.50360184-.05521105-41.58772284-2.21591924-61.67315674-10.37335205-.67337402-.27215332-1.34674805-.54430664-2.04052734-.82470703-7.78917641-3.24976368-13.53906331-6.1898491-16.95947266-14.17529297-.45117188-.87785156-.90234375-1.75570312-1.3671875-2.66015625-3.39304849-6.81246782-5.95497211-13.8244965-8.3828125-21.02734375-.29374512-.8664917-.58749023-1.7329834-.89013672-2.62573242-5.21038483-15.88278384-5.21038483-15.88278384-3.35986328-21.68676758.52207031.30292969 1.04414062.60585938 1.58203125.91796875 8.09744046 4.60887592 16.32799895 8.86003863 25.41796875 11.08203125-.42152344.47050781-.84304688.94101562-1.27734375 1.42578125-.82177734.93392578-.82177734.93392578-1.66015625 1.88671875-.81791016.92232422-.81791016.92232422-1.65234375 1.86328125-3.16658262 4.0963825-2.8662767 8.89136053-2.41015625 13.82421875 1.76803666 5.20588572 4.22422101 7.36844831 9 10 8.0062929 3.09921015 16.4314064-.07117564 23.88671875-3.21875 8.43429168-3.96907844 15.90550642-9.21756123 22.91357422-15.35888672 5.2086352-4.34594281 9.13497107-5.3101431 15.82470703-5.54736328 1.87160771-.12811748 3.74271163-.26377615 5.61328125-.40625.95471191-.07089844 1.90942383-.14179687 2.89306641-.21484375 33.6901055-2.98193274 67.49601615-16.8002459 92.86865234-39.25390625.48952148-.42925781.97904297-.85851562 1.48339844-1.30078125 15.3181687-13.4823197 26.89768995-28.21428614 35.51660156-46.69921875z" fill="#f1b836" transform="translate(1211 585)"/><path d="m0 0c.61875.639375 1.2375 1.27875 1.875 1.9375 36.77912875 36.47263601 87.28046242 53.34993525 138.59912109 53.24560547 18.70584398-.2646459 36.76510084-4.39621391 54.46337891-10.22998047 3.0625-.953125 3.0625-.953125 5.0625-.953125 4.69795235 9.01273838 7.19422616 18.15930651 9.375 28.0625.26248535 1.18956299.5249707 2.37912598.79541016 3.60473633 1.98973886 9.37552676 1.98973886 9.37552676 1.82958984 14.33276367-3.14404137 1.27529753-6.29055218 2.54439329-9.4375 3.8125-1.31774414.53463867-1.31774414.53463867-2.66210938 1.08007812-8.6458915 3.4774988-17.12024467 6.37684433-26.27539062 8.16992188-1.29103638.25378418-1.29103638.25378418-2.6081543.51269531-8.23416493 1.55897186-16.46871062 2.63526372-24.82543945 3.25341797-1.41839638.11093073-2.83548608.24089723-4.25.39355469-11.68725119 1.25261875-18.10094355-2.27570083-26.94140625-9.22216797-.96421875-.73863281-1.9284375-1.47726562-2.921875-2.23828125-2.39552235-1.88168989-4.74058736-3.80889213-7.078125-5.76171875-.91652344-.69480469-1.83304687-1.38960937-2.77734375-2.10546875-.73347656-.62519531-1.46695313-1.25039063-2.22265625-1.89453125 0-.66 0-1.32 0-2-.57878906-.2578125-1.15757812-.515625-1.75390625-.78125-2.43061866-1.31887482-4.16659192-2.83355225-6.18359375-4.71875-4.1680272-3.69893188-6.94053413-5.31053876-12.5625-5.8125-3.84220569.34305408-5.55098392.8549866-8.5 3.3125-3.78996257 5.22753457-3.48688968 10.80151982-3 17 .31717477 1.33726925.64785351 2.67151148 1 4-7.2908284-1.82379114-14.17317674-4.06202277-21.0625-7.0625-.89904053-.38994141-1.79808105-.77988281-2.72436523-1.18164062-17.31910811-7.66556004-32.36134245-17.05904324-46.25219727-30.00585938-1.84719243-1.80224408-1.84719243-1.80224408-3.9609375-2.75 0-.66 0-1.32 0-2-.5878125-.23332031-1.175625-.46664062-1.78125-.70703125-4.2962001-2.50359548-6.56319246-7.19846957-9.21875-11.29296875-.64582031-.95712891-.64582031-.95712891-1.3046875-1.93359375-2.58181657-4.080024-4.14894549-8.21958003-3.6953125-13.06640625 1.54317875-2.9986431 3.67110667-5.33394801 5.9375-7.8125 1.20273443-1.39001481 2.40325195-2.78195088 3.6015625-4.17578125.59071289-.67627441 1.18142578-1.35254883 1.79003906-2.04931641 3.50118858-4.11200377 6.57190835-8.54329864 9.67089844-12.96240234z" fill="#f1b936" transform="translate(360 508)"/><path d="m0 0c6.83344761 4.21638257 9.56769568 10.71255363 11.375 18.3125 2.79033756 27.10613632-8.92738718 54.14013054-25.54101562 74.92822266-1.6142791 1.97725022-3.24798415 3.93548716-4.89648438 5.88427734-.52037842.61746094-1.04075684 1.23492187-1.5769043 1.87109375-1.28203051 1.48038718-2.62862463 2.90439423-3.9855957 4.31640625-.66 0-1.32 0-2 0v2c-.66 0-1.32 0-2 0-.495 1.485-.495 1.485-1 3-3.46423102 3.24052606-7.2547081 6.09228291-11 9-.83917969.65355469-1.67835937 1.30710937-2.54296875 1.98046875-5.74294737 4.31834027-11.74574245 8.20803948-17.83203125 12.01953125-.77351807.4935498-1.54703613.98709961-2.34399414 1.49560547-6.84477122 4.21136419-6.84477122 4.21136419-11.28100586 3.50439453 0-.66 0-1.32 0-2-.66 0-1.32 0-2 0-1.4453125-1.46875-1.4453125-1.46875-3.125-3.5-6.25179336-7.31948646-12.93871176-13.52426705-20.5546875-19.421875-3.66294835-3.2806204-3.66294835-3.2806204-4.3203125-6.078125.72528944-2.67845477 1.5355485-5.0653416 2.5625-7.625 2.02783491-5.30356823 3.78522579-10.50903237 5.0925293-16.03588867 2.7280508-11.34373806 8.0545292-20.59338831 14.3449707-30.33911133.39767578-.62277832.79535156-1.24555664 1.20507812-1.88720703 14.24853056-22.09761239 50.34250777-65.85409238 81.41992188-51.42529297z" fill="#afdbb5" transform="translate(1272.625 385.6875)"/><path d="m0 0c4.61766625 2.92827616 9.18584346 6.05042961 13 10v2c.58136719.27328125 1.16273438.5465625 1.76171875.828125 2.20692242 1.15545676 4.09096836 2.38703206 6.05078125 3.921875.62519531.46921875 1.25039062.9384375 1.89453125 1.421875 1.29296875 1.828125 1.29296875 1.828125 1.15234375 4.703125-2.56313932 9.3205066-8.65443155 16.91261186-14.859375 24.125-1.01707031 1.21816406-1.01707031 1.21816406-2.0546875 2.4609375-13.8077424 16.03316608-31.67057189 28.03060734-50.9453125 36.5390625-.66 0-1.32 0-2 0-1.1484375-1.4609375-1.1484375-1.4609375-2.375-3.375-2.56962452-3.77867763-2.56962452-3.77867763-6.625-5.625-5.58607058-.45048956-9.26456855-.29421318-14 3-2.87123552 3.20195374-5.29589353 6.62249576-7.25390625 10.453125-1.93281249 3.57714551-3.33095498 6.09464993-7.33447266 7.37402344-9.08711331 1.20315169-18.07298529 1.57137537-27.22412109 1.54785156-.76252075-.00021149-1.5250415-.00042297-2.31066895-.00064087-18.53751048-.05103887-37.74761204-1.70362877-54.87683105-9.37435913-.7113208-.31670654-1.4226416-.63341309-2.15551758-.9597168-5.41139252-2.79874851-5.41139252-2.79874851-6.52758789-5.99853515-.22052002-2.37627513-.16796076-4.59852965-.00439453-6.97924805.02980957-.83813232.05961914-1.67626465.09033203-2.53979492.46362031-9.53876059 2.49423776-18.49722547 5.59716797-27.52270508.57363281.10957031 1.14726563.21914063 1.73828125.33203125 6.3012358 1.17610319 12.61862791 2.22701127 18.94921875 3.23046875.79510986.12673096 1.59021973.25346191 2.40942383.3840332 10.36452549 1.62971003 20.40832716 2.27752004 30.90307617 2.0534668.67208496-.01256836 1.34416992-.02513672 2.03662109-.03808594 26.97470483-.64334901 53.40408915-7.81511227 76.96337891-20.96191406.90363281-.48984375 1.80726563-.9796875 2.73828125-1.484375 5.72121129-3.24840705 10.85349919-7.15374351 15.97338867-11.26513672 4.0846017-3.25048828 4.0846017-3.25048828 6.28833008-3.25048828 0-.66 0-1.32 0-2 1.57421875-1.515625 1.57421875-1.515625 3.6875-3.25 3.55214603-3.00954469 6.45220369-6.08524535 9.3125-9.75z" fill="#f1b937" transform="translate(1153 518)"/><path d="m0 0c25.33655822 13.44269525 43.21288256 35.70065518 59 59-.52787109.70092773-.52787109.70092773-1.06640625 1.41601562-4.01167736 5.33668307-7.97910158 10.70483891-11.93359375 16.08398438-4.3045362 5.85529706-8.62807833 11.69479265-13 17.5-23.9679234-2.74005154-46.11909074-21.66793512-60.71484375-39.87109375-9.28582962-12.71444363-16.38831947-26.94742594-14.28515625-43.12890625 1.65655969-5.67697423 5.24447669-10.48650748 10-14 10.46926308-5.12888141 22.01675949-1.61626834 32 3z" fill="#afdbb6" transform="translate(274 442)"/><path d="m0 0c3.25487749 2.70742103 4.77472222 6.26125986 6.5625 10 3.04109186 6.22536131 6.18789681 12.38090061 9.4375 18.5 3.46260149 6.53380711 6.82814554 13.10541501 10.10595703 19.73364258 2.16916155 4.36828389 4.44122362 8.66842195 6.76904297 12.95385742 3.72108075 6.87486733 7.07424045 13.90678007 10.41137695 20.97436523 5.51056371 11.66725186 11.31930295 23.14185032 17.40893555 34.51660157 3.7093238 6.98173205 7.04505788 14.12100088 10.3046875 21.3215332-.44730469.47308594-.89460937.94617188-1.35546875 1.43359375-4.41907131 4.83365369-7.70732972 9.71907418-10.64453125 15.56640625-3.24711966-3.0412272-5.09650494-6.58812359-7.125-10.5-.39324463-.74975098-.78648926-1.49950195-1.19165039-2.27197266-3.25059922-6.25787268-6.25989522-12.617986-9.24316406-19.00634765-3.77691053-8.03943545-7.92306298-15.86499568-12.10131836-23.70117188-3.92838557-7.39545087-7.77771816-14.83294131-11.64257813-22.26171875-1.19218284-2.29033629-2.3854388-4.58008696-3.58007812-6.86914062-23.75893415-45.53625757-23.75893415-45.53625757-20.58496094-59.77246094 1.45148012-4.14933991 3.53092268-7.37544701 6.46875-10.6171875z" fill="#d68026" transform="translate(684 584)"/><path d="m0 0c-.350625.61875-.70125 1.2375-1.0625 1.875-1.87870328 6.26234427-.38021483 12.22115752 2.0625 18.125-10.93516463 3.57147526-22.04281727 6.42064913-33.17871094 9.28631592-4.44775505 1.14467714-8.89376174 2.29607554-13.33987427 3.44711304-2.25486188.58371107-4.5098057 1.16710573-6.76483154 1.7501831-10.07849445 2.60661378-20.1496169 5.24063536-30.21658325 7.89138794-.76758636.20189941-1.53517273.40379883-2.32601929.61181641-7.74667504 2.03824581-15.48911755 4.09080413-23.22085571 6.18505859-1.22654297.33209473-2.45308594.66418945-3.71679688 1.00634766-2.25203075.6115809-4.5033846 1.22566237-6.75390624 1.84277343-.96873047.26377442-1.93746094.52754883-2.93554688.79931641-.83692383.22961426-1.67384766.45922852-2.53613281.69580078-2.01074219.48388672-2.01074219.48388672-4.01074219.48388672 2.93967498-10.37532347 7.97642155-21.55516064 17-28 4.11615364-1.68532377 8.34655978-2.56947469 12.6875-3.5 1.34249694-.30849256 2.68426781-.6201577 4.02539062-.93457031 2.30076281-.53920961 4.60185196-1.07633632 6.90499878-1.60528565 7.78271262-1.79263644 15.530574-3.71920184 23.27664185-5.66326904.65666845-.16477844 1.31333691-.32955688 1.9899044-.49932861 3.36058028-.84362756 6.7208761-1.68838176 10.08104897-2.53363037 3.96989064-.99825194 7.94086134-1.99214909 11.91220093-2.98461914 1.26249069-.31557862 2.52498138-.63115723 3.82572937-.95629883 2.45901909-.61399863 4.91825261-1.22713922 7.37771606-1.83935547 5.06688608-1.26250896 10.13086537-2.53091758 15.18058777-3.8605957 1.13127319-.29466157 1.13127319-.29466157 2.28540039-.59527588 1.89479429-.4955162 3.78725357-.99993942 5.67944336-1.50531006 2.7734375-.52246094 2.7734375-.52246094 5.7734375.47753906z" fill="#f4dea7" transform="translate(886 706)"/><path d="m0 0c5.00105873 3.8636942 9.27429537 8.49155997 10.3125 14.94140625.22742982 3.74548484-.22285725 5.87213683-1.875 9.30859375-3.90573425 4.40646941-8.45930771 7.18064835-14.4375 7.75-3.01223724.12993965-5.98835352.14970173-9 0-.68449219.04253906-1.36898438.08507812-2.07421875.12890625-2.60698875.00439627-4.48093535-.19918361-6.92578125-1.12890625-2.83554593-3.05194691-4.60299281-6.56292696-6.5-10.25-1.10421306-2.00993784-2.212287-4.01775946-3.32421875-6.0234375-.53415527-.97936523-1.06831055-1.95873047-1.61865234-2.96777344-2.08669541-3.69703011-4.40545293-7.18033071-6.86962891-10.63378906-1.07701172-1.51207031-1.07701172-1.51207031-2.17578125-3.0546875-.74830078-1.02480469-.74830078-1.02480469-1.51171875-2.0703125 11.13955886-12.1371313 34.43066922-3.09088015 46 4z" fill="#b2dbb8" transform="translate(1263 551)"/><path d="m0 0c4.69103737 1.38424053 5.89977909 3.27127189 8.8515625 6.984375 4.87905575 5.32614054 11.45891337 8.73795129 18.625 9.37890625 11.25351387.28208016 18.26691233-2.62129012 26.42578125-10.3359375 1.18117893-1.17634794 2.33622462-2.380451 3.4453125-3.625 1.46484375-1.27734375 1.46484375-1.27734375 4.96484375-1.65234375 3.5.375 3.5.375 5.4375 1.375 1.77932668 3.34932081 1.82371999 6.38263226 1.0625 10-4.19771703 8.96435542-11.6750878 15.62179857-20.80859375 19.22265625-11.54002128 4.09351914-24.05363762 4.48806741-35.57421875.0390625-4.02832544-1.94201361-7.34399536-4.22284909-10.6171875-7.26171875-.56589844-.52464844-1.13179688-1.04929687-1.71484375-1.58984375-4.25803522-4.42460873-6.40912353-9.32945851-7.28515625-15.41015625 1.02680216-4.48059126 2.36188742-6.93576029 7.1875-7.125z" fill="#463315" transform="translate(499.1875 476.875)"/><path d="m0 0 2 2c.47050781.4640625.94101562.928125 1.42578125 1.40625 1.04478407 1.05774666 2.06387062 2.14153996 3.0546875 3.25 16.31346282 17.62003307 40.17297886 30.23967622 62.51953125 38.34375.78246094.29213379 1.56492187.58426758 2.37109375.88525391 14.25957274 5.27975886 28.66048183 8.54204814 43.62890625 11.11474609 1.09441406.19916016 1.09441406.19916016 2.2109375.40234375 13.77359286 2.46154571 27.85639785 1.7885549 41.7890625 1.59765625-2.82169746 1.88113164-4.17830914 2.40808695-7.38671875 3.03515625-.85658203.16951172-1.71316406.33902344-2.59570313.51367187-.89267578.16951172-1.78535156.33902344-2.70507812.51367188-.87333984.17337891-1.74667969.34675781-2.64648438.52539062-34.94020243 6.81059958-72.00034063 1.29863769-101.91357421-18.40527343-16.69026744-11.26325654-31.50927792-25.70383545-41.75244141-43.18261719 0-.66 0-1.32 0-2z" fill="#f0bb3b" transform="translate(311 723)"/><path d="m0 0c6.93517375 7.31004801 7.7838148 15.82589547 7.5859375 25.53125-.50195728 7.1708183-2.25538426 13.43196734-7.5234375 18.53125-3.69689969 2.71737926-7.15940591 3.88204787-11.75 3.375-5.9755745-2.22818032-8.16633122-5.19581932-11.0546875-10.78125-3.21377904-7.5430847-3.427194-19.00660929-.8203125-26.78125 2.80340274-5.1395717 5.51661016-9.23321582 10.8125-11.9375 4.86121385-.79366757 8.46163932-.43073295 12.75 2.0625z" fill="#463416" transform="translate(1048.6875 421.5625)"/><path d="m0 0 1 2c-16.73169517 25.65746169-38.43514261 45.79741441-69.03125 53-3.64775227.75873247-7.28872302 1.41985457-10.96875 2-1.21042969.19722656-1.21042969.19722656-2.4453125.3984375-19.10328258 2.60819725-38.50102668-1.15766586-56.5546875-7.3984375 0-.33 0-.66 0-1 1.1746582.02356567 1.1746582.02356567 2.37304688.04760742 37.20564796.64344269 75.96882056-3.38920523 107.62695312-25.04760742.55155762-.37092773 1.10311523-.74185547 1.67138672-1.12402344 9.71848105-6.56718485 19.11173831-13.52016353 26.32861328-22.87597656z" fill="#f0bc3a" transform="translate(1216 725)"/><path d="m0 0c5.23985301 3.49323534 8.55197781 7.68698197 9.8125 13.875.72559142 8.94032285.0318027 17.25017578-4.875 24.9375-3.6591486 3.55152659-6.37214105 5.23881873-11.5 5.5-4.65815254-.18601607-8.12328153-1.30869181-11.625-4.4375-5.58610928-7.47078445-5.53823711-15.01633336-5-24 1.25911105-6.8804966 4.17931067-12.10154603 9.8125-16.375 4.75674911-1.35907117 8.79615858-1.11606168 13.375.5z" fill="#473415" transform="translate(489.1875 411.125)"/><path d="m0 0c4.89741461 3.30043158 7.45368413 8.39357132 9 14 1.24795733 9.95844739-.40259393 18.86084848-6.1875 27.125-3.86701625 2.57801084-7.18731663 3.2754134-11.8125 2.875-5.45553611-2.47043145-7.49121325-5.79659045-10-11-2.36463297-7.14119158-2.20392577-17.16419924.625-24.125 4.15423782-7.63052711 9.64455264-10.64448766 18.375-8.875z" fill="#463415" transform="translate(588 411)"/><path d="m0 0c4.93372301 3.92455239 7.57167183 8.36103853 8.58203125 14.5859375.60569645 9.95806025.86475183 17.26077802-5.58203125 25.4140625-2.62975873 2.81759864-3.95951138 2.99477566-7.875 3.5-3.65853506-.17680653-6.12246016-1.13957136-8.8046875-3.78515625-5.39786038-7.01083049-6.24566103-15.24736834-5.8359375-23.8515625.7565348-5.66827967 2.66826321-9.65495416 6.515625-13.86328125 4.46429145-3.32447235 7.68079165-3.54740606 13-2z" fill="#473416" transform="translate(949 415)"/><path d="m0 0c3.02543429 1.3900644 4.47286393 2.23229066 6.3125 5.0625.35055866 4.46544966-.38693325 7.97822209-2.6875 11.8125-7.95358155 7.52365822-16.36646171 9.43838651-27 9.5625-1.06891479.02078613-1.06891479.02078613-2.15942383.04199219-5.80770878-.05125838-10.16208946-1.48732335-15.09057617-4.66699219-1.77410802-2.92206028-1.41768635-5.4349274-1.0625-8.75 1.28320312-1.69555664 1.28320312-1.69555664 3-3 2.88233928-.27827463 5.615882-.41043841 8.5-.4375 9.19095606-.30401489 16.90419805-1.65641173 24.375-7.375 3.125-2.1875 3.125-2.1875 5.8125-2.25z" fill="#463315" transform="translate(1022.6875 492.9375)"/><path d="m0 0c0 3 0 3-2.3125 5.6875-2.6875 2.3125-2.6875 2.3125-5.6875 2.3125zm-12 11c0 4.15560231-2.2820452 5.84099329-5 8.6875-.47695313.51111328-.95390625 1.02222656-1.4453125 1.54882812-1.17828665 1.26076672-2.36564003 2.51304874-3.5546875 3.76367188 0-4.15560231 2.2820452-5.84099329 5-8.6875.47695313-.51111328.95390625-1.02222656 1.4453125-1.54882812 1.17828665-1.26076672 2.36564003-2.51304874 3.5546875-3.76367188z" fill="#271909" transform="translate(932 315)"/><path d="m0 0c8.07029553-.11547323 15.97667603.09958689 24 1-3.51624755 1.94158017-5.9715651 2.18311068-10 2l4 2c-6.43681228-.51085812-11.95942424-1.72942897-18-4 0-.33 0-.66 0-1z" fill="#e6c758" transform="translate(1078 774)"/><path d="m0 0 1 2c-1.42544354 2.1755197-2.86414548 4.33981854-4.3125 6.5-.40412109.62003906-.80824219 1.24007812-1.22460938 1.87890625-1.07781529 1.59481613-2.26472894 3.11459685-3.46289062 4.62109375-.99 0-1.98 0-3 0-.99.66-1.98 1.32-3 2 0-3 0-3 2.046875-5.0859375.89203125-.75539063 1.7840625-1.51078125 2.703125-2.2890625 3.50956517-2.98620896 6.46742546-5.94524022 9.25-9.625z" fill="#efce57" transform="translate(1216 725)"/><path d="m0 0 2 2c.44988281.44859375.89976562.8971875 1.36328125 1.359375 1.23161951 1.23455894 2.45716113 2.47518589 3.6796875 3.71875.70769531.71671875 1.41539062 1.4334375 2.14453125 2.171875.67417969.68578125 1.34835937 1.3715625 2.04296875 2.078125 1.6775212 1.74636611 1.6775212 1.74636611 3.76953125 2.671875-.33.66-.66 1.32-1 2-.66-.33-1.32-.66-2-1-.33.66-.66 1.32-1 2-1.84104236-2.45264589-3.67147793-4.91300959-5.5-7.375-.78697266-1.04800781-.78697266-1.04800781-1.58984375-2.1171875-.49628906-.6703125-.99257813-1.340625-1.50390625-2.03125-.46083984-.61794434-.92167969-1.23588867-1.39648438-1.87255859-1.00976562-1.60400391-1.00976562-1.60400391-1.00976562-3.60400391z" fill="#f1cf53" transform="translate(311 723)"/><path d="m0 0c-2.51840815.677219-5.03908724 1.34191174-7.5625 2-.70447266.19078125-1.40894531.3815625-2.13476562.578125-4.57333647 1.18021586-8.58049803 1.62044473-13.30273438 1.421875l4-2c-.99-.66-1.98-1.32-3-2 2.91634122-.19502282 5.83279545-.38129328 8.75-.5625 1.2375-.08411133 1.2375-.08411133 2.5-.16992188.79921875-.04833984 1.5984375-.09667968 2.421875-.14648437.7331543-.04713135 1.46630859-.0942627 2.22167969-.14282227 2.19001757.02259059 4.01131718.40685396 6.10644531 1.02172852z" fill="#edcf6a" transform="translate(470 783)"/><path d="m0 0c3 5.75 3 5.75 3 8-.66 0-1.32 0-2 0-.66-.66-1.32-1.32-2-2-.99 1.485-.99 1.485-2 3-.66 0-1.32 0-2 0-.042721-1.66611905-.04063832-3.33382885 0-5l1-1c-.66-.66-1.32-1.32-2-2 3-1 3-1 6-1z" fill="#e29135" transform="translate(822 544)"/><path d="m0 0c.185625.9590625.185625.9590625.375 1.9375l.625 2.0625 2 1v2c-.99.33-1.98.66-3 1-.33 2.64-.66 5.28-1 8-.33 0-.66 0-1 0-.05449838-1.72880982-.09301688-3.45812712-.125-5.1875-.02320313-.96292969-.04640625-1.92585938-.0703125-2.91796875.2039581-3.02265903.92656618-5.1622311 2.1953125-7.89453125z" fill="#2f210f" transform="translate(209 443)"/><path d="m0 0c2 1 2 1 2 1zm0 2c-4.43076923 3.07692308-4.43076923 3.07692308-7.3125 2.6875-.8353125-.3403125-.8353125-.3403125-1.6875-.6875 5.625-3.125 5.625-3.125 9-2zm-11 3 2 1c-1.32.33-2.64.66-4 1z" fill="#1c1107" transform="translate(963 297)"/><path d="m0 0c1 2 1 2 .22265625 4.3828125-.38285156.90492188-.76570313 1.80984375-1.16015625 2.7421875-.38027344.91007812-.76054687 1.82015625-1.15234375 2.7578125-.30035156.69867188-.60070312 1.39734375-.91015625 2.1171875-.33 0-.66 0-1 0 .4682121-4.77576339 1.24331998-8.04476345 4-12z" fill="#241206" transform="translate(471 415)"/><path d="m0 0 8 8c-.33.99-.66 1.98-1 3-1.17249353-1.45365269-2.33783816-2.91307419-3.5-4.375-.97453125-1.21816406-.97453125-1.21816406-1.96875-2.4609375-1.53125-2.1640625-1.53125-2.1640625-1.53125-4.1640625z" fill="#e1c65f" transform="translate(311 723)"/><path d="m0 0 2 2c-3.465 2.97-3.465 2.97-7 6 1.52475697-3.04951395 2.92885326-5.36399506 5-8z" fill="#2f1e0e" transform="translate(914 332)"/><path d="m0 0 1 2c-5.5 3.125-5.5 3.125-10 2 2.97-1.32 5.94-2.64 9-4z" fill="#281a07" transform="translate(559 523)"/><path d="m0 0c1.875.625 1.875.625 4 2 1.25 3.125 1.25 3.125 2 6-.99 0-1.98 0-3 0-.185625-1.1446875-.185625-1.1446875-.375-2.3125-.50602792-2.89017136-.50602792-2.89017136-2.625-5.6875z" fill="#d5edd8" transform="translate(1275 389)"/></svg>