<svg height="1024" width="1024" xmlns="http://www.w3.org/2000/svg"><path d="m0 0h1024v1024c-337.92 0-675.84 0-1024 0 0-337.92 0-675.84 0-1024z" fill="#fbefd2"/><path d="m0 0c6.40983918 5.97527381 11.41539543 13.97743737 12 22.87109375.29890752 11.561743-.65928282 20.41663804-8.23828125 29.6875-7.69513565 8.00090263-17.10265648 11.74196155-28.0625 12-10.38818556-.11738063-18.34011736-2.98346481-26-10.01953125-1.83454104-1.50364101-1.83454104-1.50364101-3.98828125-1.18359375-11.88690454 5.43129105-18.65630067 25.77286169-22.953125 37.171875-.32871094.8971875-.65742187 1.794375-.99609375 2.71875.55179932.10376953 1.10359863.20753906 1.67211914.31445313 5.59725877 1.13572734 10.5796372 2.81262836 15.76538086 5.18554687.76932861.34893311 1.53865723.69786621 2.33129883 1.05737305 19.60812896 9.06201144 36.74016268 20.38675809 52.23120117 35.44262695.53898926.51852539 1.07797852 1.03705078 1.63330078 1.57128906 7.33354075 7.07611155 14.13028762 14.34788925 20.36669922 22.42871094.74894531.95519531 1.49789062 1.91039062 2.26953125 2.89453125 30.86194279 40.11526806 45.74843428 92.18800727 40.1171875 142.55859375-3.90654059 28.19150617-14.16594764 57.06264356-30.38671875 80.546875-.46100098.68223633-.92200195 1.36447266-1.39697266 2.06738281-11.65931363 17.18175443-25.35252435 33.33311107-44.73974609 41.95996094-2.03699037.83178645-2.03699037.83178645-2.86328125 2.97265625.87293701.27908203 1.74587402.55816406 2.64526367.84570313 19.59583452 6.74253006 38.41005048 17.27853414 55.35473633 29.15429687l.625-2.5c1.77747275-4.52447609 4.36885062-7.71358248 7.375-11.5.77472656-1.03382813 1.54945313-2.06765625 2.34765625-3.1328125 10.07037817-13.35171597 21.60329404-24.57101574 34.97167969-34.58789063 1.61926707-1.23256238 3.2017371-2.51301354 4.78222656-3.79492187 14.37424956-11.57218066 36.88233307-27.76678615 55.8984375-28.484375 6.23709578.9848046 9.0256881 3.34714704 13 8v2c.8971875.4021875.8971875.4021875 1.8125.8125 2.15974808 1.17243467 3.54540256 2.38119282 5.1875 4.1875l2.3125-1c7.53050895-2.04217192 14.70628132-1.88301514 21.7421875 1.66015625 3.69275634 2.54340447 6.11418546 5.90469446 7.55859375 10.13671875.52701998 3.00241683.55758334 5.90551735.57421875 8.953125.01417969 1.17046875.02835938 2.3409375.04296875 3.546875-.45276518 7.27493885-2.87119706 13.81739474-5.41796875 20.578125-.26619141.71929688-.53238281 1.43859375-.80664063 2.1796875-1.48070253 3.97540092-2.99861985 7.93511174-4.55029296 11.88330078-4.44645171 11.3235677-8.62719389 22.72621299-12.70556641 34.18701172-.92004581 2.57884284-1.84081587 5.15742506-2.762146 7.73580933-.56522125 1.58246634-1.12961927 3.16522709-1.69299316 4.74835205-1.7170592 4.81570427-3.48865082 9.60782696-5.29486084 14.39083862.59554687.26167969 1.19109375.52335938 1.8046875.79296875 2.31912032 1.27510352 3.61836599 2.51016509 5.3203125 4.51953125.74636719.86044922.74636719.86044922 1.5078125 1.73828125 5.37018787 7.65635356 4.04030651 18.33767212 2.97265625 27.23828125-2.22651903 10.65856207-7.77872228 21.22620636-16.60546875 27.7109375-2.00360787 1.15220198-4.04616418 2.23982402-6.125 3.25-1.01320313.50015625-2.02640625 1.0003125-3.0703125 1.515625-4.79798125 2.11164635-8.5456707 2.33550994-13.8046875 2.234375-.26828613.90878906-.26828613.90878906-.54199219 1.8359375-10.78393745 36.2719759-10.78393745 36.2719759-27.23535156 45.5703125-1.13775879.650896-2.27551758 1.30179199-3.44775391 1.97241211-.60354309.34433075-1.20708618.6886615-1.82891845 1.04342651-15.21681973 8.70853381-29.77305763 18.25197961-44.27362061 28.09353638-3.61827037 2.45257656-7.25366264 4.87874437-10.89501953 7.296875-.58329575.38736328-1.16659149.77472656-1.76756287 1.17382813-1.16078849.77072186-2.32161069 1.54139297-3.48246765 2.31201171-11.95541691 7.94205127-23.8218049 16.00820614-35.63717651 24.15673829-1.37639157.94923556-2.75301536 1.89813452-4.12988281 2.84667968-1.32294529.911955-2.64491358 1.82532918-3.96582032 2.74023438-3.25909211 2.2496388-6.53909527 4.45090997-9.87646484 6.58300781-6.91718874 4.43555814-13.01644282 8.65214203-17.91796875 15.375-.57492187.75023437-1.14984375 1.50046875-1.7421875 2.2734375-1.44181624 1.89362962-2.8595168 3.80070468-4.2578125 5.7265625 1.45019531.63615234 1.45019531.63615234 2.9296875 1.28515625 12.22677625 5.4601811 22.18908754 10.67796094 29.0703125 22.71484375 1.65112454 4.95337361 1.85967138 9.9639362-.1875 14.8125-4.49755608 5.42808492-9.13486686 7.59533873-16.0390625 8.70703125-16.49841703 1.42227733-34.3640868-4.5671779-47.62109375-14.62890625-5.96826653-5.24254265-11.42769545-10.49771605-12.5234375-18.65234375-.26556255-11.70037369 4.16592632-18.53655172 12.0546875-26.8671875 1.14662109-1.17369141 1.14662109-1.17369141 2.31640625-2.37109375.65097656-.68964844 1.30195312-1.37929688 1.97265625-2.08984375 5.23874479-5.43237396 10.92133326-10.46942135 17.02734375-14.91015625h2c0-.66 0-1.32 0-2-1.51207031-.18369141-1.51207031-.18369141-3.0546875-.37109375-5.04561701-.80430133-9.76481879-2.29004549-14.640625-3.7890625-4.13004158-1.059488-4.13004158-1.059488-8.3046875-.83984375-2.65448716 1.75238693-2.65448716 1.75238693-5.375 4.1875-22.88578193 18.56821743-56.06400936 34.76601059-85.625 37.8125-.33 5.28-.66 10.56-1 16l6.5625-.125c13.8462196-.07023113 29.29984495 1.01237314 40.4375 10.125 5.17750918 5.20980134 8.02699106 8.80796256 8.375 16.25-.09624997 5.32874844-1.82656365 8.82018965-5.375 12.75-8.32611999 7.24437999-18.22215435 9.49033831-29 10-1.12277344.06445313-2.24554688.12890625-3.40234375.1953125-16.5027538.51949907-32.38785246-3.58226267-44.68359375-15.07421875-6.65909879-7.37936866-7.39046763-15.56975184-6.9140625-25.12109375.76118145-7.20375842 1.90763337-14.07233233 4-21-.77375977-.03963867-1.54751953-.07927734-2.34472656-.12011719-27.02162529-1.44915975-52.43001119-5.56677529-77.54492188-16.13916015-3.89949451-1.57419402-6.09062269-1.85153638-10.11035156-.74072266-1.68169733.77659777-3.33376893 1.61940186-4.95703125 2.51171875-1.41079834.76219849-1.41079834.76219849-2.85009766 1.53979492-1.48765869.80981323-1.48765869.80981323-3.00537109 1.63598633-27.13094264 14.47826405-27.13094264 14.47826405-40.1875 13.3125-3.40918784-2.12127244-5.78269305-4.12675063-7-8-.94513185-7.24601088 2.26575542-12.75206851 5.3125-19.1875 3.84675106-8.16503935 6.82998135-15.9602161 8.6875-24.8125-.58177002-.25724854-1.16354004-.51449707-1.76293945-.77954102-2.43589581-1.32893628-4.06684433-2.79160329-6.0300293-4.74780273-.70817871-.70406982-1.41635742-1.40813965-2.14599609-2.13354492-.74201661-.75128174-1.48403321-1.50256348-2.24853516-2.27661133-.76521973-.77126221-1.53043945-1.54252441-2.31884766-2.3371582-5.55941365-5.65701987-10.64293886-11.44741654-15.49365234-17.7253418-.87346295-1.06353601-1.74993969-2.1246017-2.62890625-3.18359375-28.95654432-35.21261917-44.50004612-85.74023443-40.13525391-131.27685547.22955088-1.84981444.49264627-3.69542842.76416016-5.53955078-1.22203125.48597656-2.4440625.97195313-3.703125 1.47265625-5.99581911 1.98883992-11.77671942 2.02248053-18.046875 1.96484375-1.15435547-.00829834-2.30871094-.01659668-3.49804687-.02514648-14.75308871-.29293513-25.97402306-4.13814434-36.43945313-14.97485352-10.73893493-12.95814476-12.42200082-27.1486978-11.3125-43.4375.79655378-4.35145949 2.07200047-8.03023699 4-12 .43570313-.92683594.87140625-1.85367187 1.3203125-2.80859375 8.98520306-17.70035903 23.56871555-28.11582994 40.6796875-37.19140625-1.4540625-.87398437-1.4540625-.87398437-2.9375-1.765625-37.69647066-22.93700596-74.2966045-55.27751584-85.375-99.734375-5.56330603-22.96092382-4.03125264-46.09634186 8.11474609-66.64990234 8.29143127-12.80726991 20.56038503-21.68359714 35.19775391-25.85009766 17.90517799-3.81486022 36.5326117-3.51506566 54 2 1.18335938.36222656 2.36671875.72445312 3.5859375 1.09765625 18.36054339 6.08579809 34.15999731 16.20680491 49.4140625 27.90234375.77472656.54140625 1.54945313 1.0828125 2.34765625 1.640625.81791016.67289062.81791016.67289062 1.65234375 1.359375v2h2c.0825-1.299375.165-2.59875.25-3.9375 3.59130691-34.60272739 20.57105093-69.51337268 43.75-95.0625.80566406-.91394531 1.61132813-1.82789063 2.44140625-2.76953125 6.71333551-7.57664092 13.52824156-14.50430083 21.62109375-20.60546875.74241943-.56162842 1.48483887-1.12325684 2.24975586-1.7019043 11.62013843-8.70049316 23.58369114-15.70379545 36.68774414-21.9230957.68368652-.32806641 1.36737305-.65613281 2.07177734-.99414063 17.48502007-8.38487129 17.48502007-8.38487129 23.92822266-8.00585937-9.70973774-18.20096388-21.40373575-35.82231483-40-46-.66 0-1.32 0-2 0-1.02327926 1.34249466-1.99318112 2.72583803-2.9375 4.125-4.57755803 6.09699956-11.4333832 10.59890672-19.0625 11.875-13.36167792.85525955-24.27517065-.06439074-34.9296875-9.01953125-8.96823886-8.57905114-12.31731355-16.55413362-12.6328125-28.79296875-.0099153-9.63172657 2.77916968-16.74208687 9.0625-24.125.825-.680625 1.65-1.36125 2.5-2.0625.94875-.86625 1.8975-1.7325 2.875-2.625 8.86683104-6.73879159 19.6291759-7.27473137 30.375-6.13671875 10.13642591 1.79197529 19.55890343 7.55361334 25.75 15.76171875 5 8.90243902 5 8.90243902 5 14 1.2375.350625 2.475.70125 3.75 1.0625 10.81586721 3.65056742 19.08832759 10.16821569 27.25 17.9375 2.45502418 2.16311582 4.9166611 4.31833424 7.3828125 6.46875 7.16430443 6.92905861 12.59802509 14.205994 17.5546875 22.84375.57556641.97517578 1.15113281 1.95035156 1.74414063 2.95507813 4.54326973 7.79687161 4.54326973 7.79687161 5.31835937 11.73242187 1.13695312-.19335937 2.27390625-.38671875 3.4453125-.5859375 4.84900881-.82039844 9.70112842-1.62106964 14.5546875-2.4140625 1.83884766-.30164063 1.83884766-.30164063 3.71484375-.609375 17.85160744-2.74960581 35.79931287-3.20269816 53.72265625-.953125 1.69672852.20206055 1.69672852.20206055 3.42773437.40820313 5.06837506.61154613 10.10254819 1.28988689 15.13476563 2.15429687.12375-.52464844.2475-1.04929687.375-1.58984375 5.3188598-19.97896713 17.75156834-42.91679543 35.4375-54.22265625 5.64976899-3.86852238 6.74819215-7.58360759 8.3203125-14.07421875 2.25100551-8.08131257 9.24054077-14.31614213 15.8671875-19.11328125 14.82710065-7.76018692 31.94705817-6.66103121 45.23828125 3.75390625z" fill="#413018" transform="translate(654.238281 123.753906)"/><path d="m0 0c.85428589.0059317 1.70857178.0118634 2.58874512.01797485 19.21013063.13526682 37.46032553.97961161 55.94641113 6.58700562 2.38755703.72194702 4.78413478 1.40519897 7.18359375 2.08642578 9.92966255 2.89240623 19.02618223 6.57130462 28.10546875 11.51611328 2.15664991 1.16202351 4.33541644 2.27288036 6.51953125 3.38232422 10.82299367 5.61085564 19.72562406 12.31765767 28.53125 20.72265625.88558594.84046875 1.77117187 1.6809375 2.68359375 2.546875 4.69888328 4.59587235 9.08057759 9.43051175 13.31640625 14.453125.71027344.82113281 1.42054688 1.64226562 2.15234375 2.48828125 5.72693008 6.76463023 10.43839361 13.83050328 14.84765625 21.51171875.33386719.57202148.66773438 1.14404297 1.01171875 1.73339844 22.51100983 38.83364818 26.37729694 84.09396727 15.22558594 127.21582031-4.99266725 18.01128259-13.27657501 34.66295545-25.23730469 49.05078125-.45632813.56025879-.91265625 1.12051758-1.3828125 1.69775391-9.29292487 11.38942363-19.19980733 21.27392519-31.6171875 29.30224609-1.00933594.65871094-2.01867187 1.31742188-3.05859375 1.99609375-3.27325284 2.07869238-6.59097133 4.05242486-9.94140625 6.00390625-1.54494141.96292969-1.54494141.96292969-3.12109375 1.9453125-8.74937829 4.87168878-14.97911265 3.80716375-24.20703125 1.62646484-5.38477405-1.15233377-10.84785183-1.8561658-16.296875-2.63427734-2.33854528-.33981886-4.67708704-.67966198-7.015625-1.01953125-1.64838867-.23710693-1.64838867-.23710693-3.33007812-.47900391-2.54793829-.36921285-5.09355476-.75015183-7.63867188-1.13818359-14.79801079-2.72759239-14.79801079-2.72759239-28.390625 1.69921875-2.25175281 2.91893883-3.23419458 5.64372974-4.08203125 9.17578125-.30292969 1.26199219-.60585938 2.52398438-.91796875 3.82421875-25.43634065.86665556-51.09778334-1.3540006-75.85498047-7.47021484-2.26364683-.55908419-4.53388745-1.0847123-6.80517578-1.61181641-28.48777037-6.82947982-52.0819221-19.90607092-73.33984375-39.91796875-.91845703-.83917969-.91845703-.83917969-1.85546875-1.6953125-14.52490916-13.76044026-22.74670885-31.35067621-29.28369141-49.87744141-.5394186-1.52095852-1.09864642-3.03519277-1.68652343-4.53808593-4.76059786-12.74957862-4.52239369-26.66515131-4.48999024-40.08618164.00316582-2.73355855-.02041965-5.46603655-.04565429-8.1994629-.05264105-14.37262841 1.79392107-27.63297522 6.04882812-41.41601562.25346191-.82838379.50692383-1.65676758.76806641-2.51025391 9.40041511-29.79147752 25.57334375-56.53486727 50.54443359-75.67724609 1.22970424-.97979444 2.4588377-1.96030553 3.6875-2.94140625 8.93589482-7.03148753 17.98383475-12.35543428 28.3125-17.05859375 1.14597656-.54269531 2.29195313-1.08539063 3.47265625-1.64453125 3.16077672-1.48808916 6.33743459-2.93104391 9.52734375-4.35546875 1.07636719-.48855469 2.15273438-.97710937 3.26171875-1.48046875 1.57201172-.69029297 1.57201172-.69029297 3.17578125-1.39453125.92683594-.40992188 1.85367188-.81984375 2.80859375-1.2421875 3.18286967-1.02032418 5.43551679-1.34720668 8.75390625-.8828125 1.94140625 1.86328125 1.94140625 1.86328125 3.5625 4.3125 3.36906941 4.88177174 3.36906941 4.88177174 8.4375 7.6875 4.68388687.18014949 8.03614694-.37751156 12-2.9375 3.17654244-3.27580939 3.11534456-5.3790685 3.1328125-9.89453125-.15041759-2.45534591-.63248268-4.76196363-1.1328125-7.16796875 11.81232176-2.69555918 23.03137093-3.45457879 35.125-3.3125z" fill="#fdc640" transform="translate(502.125 235.6875)"/><path d="m0 0c6.0485154-1.15331604 12.75492601.41904088 18.71875 1.55078125.93880005.17501541 1.8776001.35003082 2.84484863.53034973 12.43176613 2.39794145 24.7011498 5.50335778 36.97124481 8.60942078 1.99257394.50388154 3.98577238 1.00522421 5.97913361 1.50598144 17.96423188 4.51679065 35.85296354 9.16925381 53.49285889 14.84350586 3.13941717 1.00686691 6.28754193 1.98196966 9.43847656 2.95214844 2.01852655.62664705 4.03677238 1.25419934 6.0546875 1.8828125.88606934.27457031 1.77213867.54914062 2.68505859.83203125 4.49818916 1.42918162 8.6470793 3.03312144 12.81494141 5.29296875-1.01412208 11.05393067-5.75546599 20.89021209-10 31-1.17202736 2.80668556-2.34175969 5.61432676-3.51171875 8.421875-.63458038 1.52181927-1.26918362 3.04362901-1.90380859 4.56542969-2.6121127 6.26494685-5.22205924 12.5307931-7.82910157 18.79785156-1.05828135 2.54334759-2.12050025 5.08487515-3.18652343 7.625-12.59663577 30.07283086-22.57448086 61.26952443-31.56884766 92.58984375-4.64348377-.57148321-8.90778636-1.4592242-13.359375-2.890625-1.18795166-.37713135-2.37590332-.7542627-3.59985352-1.14282227-1.87643188-.6021936-1.87643188-.6021936-3.79077148-1.21655273-8.22711956-2.60586629-16.44553122-5.18616605-24.8125-7.3125-82.82001397-21.12875698-82.82001397-21.12875698-105.4375-32.4375.62201946-2.54242904 1.24751759-5.08391875 1.875-7.625.17402344-.71285156.34804688-1.42570313.52734375-2.16015625 1.02619963-4.14280591 2.18556354-8.18211053 3.59765625-12.21484375l3.15625.4375c18.45975469 2.44291543 36.80337062 3.85473027 52.84375-7.4375 6.87958192-6.04810927 10.48822803-12.05613409 11.2734375-21.17578125.28263091-9.42465377-1.06242914-16.22806968-7.55078125-23.2265625-9.59202088-8.89600123-21.12389105-10.07119488-33.72265625-10.59765625.70411916-4.5471827 2.3179015-8.64323037 4.02734375-12.88671875.30477264-.76687134.60954529-1.53374268.92355347-2.32385254.99178511-2.49382125 1.9891812-4.98535713 2.98660278-7.47692871 1.36927803-3.4366699 2.73562573-6.87450092 4.1015625-10.3125.33935074-.85313278.67870148-1.70626556 1.02833557-2.58525085 3.40673636-8.57847282 6.70934704-17.19522207 9.96165466-25.83345032.36810791-.9691333.73621582-1.9382666 1.11547852-2.93676758.31300049-.83168701.62600098-1.66337402.94848633-2.52026367.90698242-2.12426758.90698242-2.12426758 2.90698242-5.12426758z" fill="#e67e24" transform="translate(505 592)"/><path d="m0 0c1.67663198 1.13369579 3.37799129 2.23112661 5.09375 3.3046875 8.28489312 5.25938896 15.23590762 11.45166948 22.234375 18.26953125 1.42505859 1.35544922 1.42505859 1.35544922 2.87890625 2.73828125 2.12109375 2.26171875 2.12109375 2.26171875 2.12109375 4.26171875l3 1c2.98417596 7.08131974 3.79495533 15.19953606 4.9375 22.75 3.17113175 19.7277934 8.54527621 38.41738962 18.875 55.6484375 1.1875 2.6015625 1.1875 2.6015625 1.12109375 4.65234375-1.26270745 2.63636409-2.9466943 4.55998933-4.87109375 6.76171875-3.77821263 4.49758432-7.18466883 9.10957409-10.4375 14-.41628662.62173096-.83257324 1.24346191-1.26147461 1.8840332-2.40379433 3.65339554-4.48401042 7.34435947-6.36352539 11.3034668-6.76015918-1.16953155-13.04167564-2.83696287-19.4375-5.3125-1.32269897-.5096228-1.32269897-.5096228-2.67211914-1.02954102-21.32390975-8.4371474-41.70333522-18.30526233-59.14428711-33.31420898-2.44220755-2.08438766-4.93115291-4.03956373-7.49609375-5.96875-9.26124502-7.18659336-16.26108471-16.05644628-23.25-25.375-.59039062-.78375-1.18078125-1.5675-1.7890625-2.375-12.06427445-17.03191687-16.89239625-37.94698592-16.2109375-58.625 1.95812666-10.80949594 7.42895313-20.14914578 16-27 25.06835798-15.70259626 54.64994322-2.66478711 76.671875 12.42578125z" fill="#a5dfbb" transform="translate(255.671875 383.425781)"/><path d="m0 0h2c.18433594.62003906.36867188 1.24007812.55859375 1.87890625 10.71136929 32.70538089 40.53335789 51.23125273 69.60424805 66.31787109 4.33695326 2.19046046 8.65414695 4.14767938 13.2043457 5.85400391 3.94497369 1.53652882 6.52048597 3.18601641 9.3828125 6.38671875 2.41333405 2.59603363 4.73535352 5.09090908 7.5 7.3125 2.77800268 2.27291129 5.21215995 4.71215995 7.75 7.25 9.289986 9.2538382 19.88695462 16.05526517 32 21-.53686302 5.24783603-1.78310216 9.27553597-4 14.125-2.63326479 5.78558657-4.14507805 10.4577986-4.125 16.8125-.00257813.81339844-.00515625 1.62679687-.0078125 2.46484375.14937826 2.92166309.63369013 5.71716999 1.1328125 8.59765625-9.86492106-1.15971698-19.05919669-3.57734466-28.4375-6.75-.70682922-.23687531-1.41365845-.47375061-2.14190674-.71780396-22.79242453-7.69415454-44.6665049-17.69911953-64.42059326-31.53219604-1.00522705-.69754395-1.00522705-.69754395-2.03076172-1.40917969-4.41262179-3.08419493-8.72324644-6.2813566-12.96923828-9.59082031-.57476074-.44698242-1.14952148-.89396484-1.74169922-1.35449219-7.5688243-5.95811672-14.25059605-12.24522188-20.01269531-20.03222656-1.28811385-1.66833718-2.67363989-3.20521017-4.08544922-4.76953125-10.21853189-12.3267541-8.80046327-28.6180512-7.39685059-43.72210693 1.13978319-10.21660735 3.6149116-20.19933915 6.23669434-30.12164307.40107505-1.59178567.79988947-3.18414463 1.1953125-4.77734375.26554687-1.06347656.53109375-2.12695313.8046875-3.22265625z" fill="#fcc53f" transform="translate(288 603)"/><path d="m0 0c1.05905184 2.67651282 1.04022303 3.87641885.13671875 6.65234375-.71736328 1.62615234-.71736328 1.62615234-1.44921875 3.28515625-3.2191968 7.58643746-5.90682311 15.32575497-8.5625 23.125-3.11089754 9.10341301-6.23898465 18.19900267-9.5 27.25-.30921387.86955322-.61842773 1.73910645-.93701172 2.63500977-.85880286 2.36765557-1.75499773 4.7131499-2.68798828 7.05249023-.44931885 1.13719482-.44931885 1.13719482-.90771484 2.29736328-1.5727216 3.5819965-2.37708213 5.31614817-5.89697266 7.21826172-1.51980469.36351562-1.51980469.36351562-3.0703125.734375-9.51728984 2.6731371-16.80310651 8.21829399-21.93359375 16.76171875-4.8328465 9.42231224-6.92875143 18.41345627-4.5078125 28.96875 1.81911274 5.47243459 3.9424073 9.4057259 8.2421875 13.2890625 1.07421875 1.73046875 1.07421875 1.73046875 1.02734375 4.2421875-1.37879566 5.04616609-3.39175408 9.71511084-5.515625 14.48828125-.40541016.97195313-.81082031 1.94390625-1.22851562 2.9453125-2.96133492 6.65733484-5.96926814 10.33919853-12.20898438 14.0546875-1.21755981.74733398-1.21755981.74733398-2.4597168 1.50976562-2.68250508 1.61397515-5.38726999 3.18249812-8.1027832 4.74023438-12.17096499 6.98261608-23.67951772 14.86474577-35.26953125 22.7578125-.73785233.50237183-1.47570465 1.00474365-2.23591614 1.52233887-.73876877.50309692-1.47753753 1.00619384-2.23869323 1.52453613-.73968018.50370117-1.47936036 1.00740234-2.24145508 1.52636719-1.53382503 1.04581234-3.06667438 2.09305684-4.59863282 3.14160156-2.24641574 1.53678531-4.49670418 3.06774166-6.74780273 4.59765625-.68633011.47172638-1.37266022.94345276-2.07978821 1.42947388-4.79819102 3.25021362-4.79819102 3.25021362-7.02568054 3.25021362 1.36551364-8.09360736 4.43502145-15.32799909 7.6192627-22.83587646 1.61014911-3.80094798 3.19240124-7.61346973 4.77526855-11.42584229.31436005-.75621643.62872009-1.51243286.9526062-2.29156494 4.16302306-10.04580841 7.95455656-20.22198799 11.65286255-30.44671631.39106934-1.07846191.78213867-2.15692383 1.18505859-3.26806641 13.27013035-35.60058469 13.27013035-35.60058469 24.66259766-71.81005859 3.23123257-8.1930914 12.47128684-14.15092369 19.1796875-19.51953125 3.31517559-2.67914978 6.55504938-5.43430626 9.78515625-8.21484375.88316895-.75966064.88316895-.75966064 1.78417969-1.53466797 1.2019537-1.03448976 2.40361231-2.06932248 3.60498047-3.10449219 2.92836187-2.52126947 5.86371974-5.03436095 8.79833984-7.54833984.86153687-.73887451.86153687-.73887451 1.74047852-1.49267578 2.96341361-2.54149122 5.92947912-5.07978275 8.90014648-7.61279297 6.10904695-5.21365635 12.16677527-10.46748667 18.11328125-15.8671875 2.79815978-2.52564335 5.64667086-4.99019099 8.5-7.453125 1.59472216-1.43774727 3.04229144-2.93418858 4.49609375-4.51171875 2.25-2.0625 2.25-2.0625 6.25-2.0625z" fill="#e67e24" transform="translate(818 554)"/><path d="m0 0c3.92340455 3.28471079 7.69008482 6.65861402 11.37890625 10.20654297 7.30129435 6.95162393 15.01843402 12.56128177 23.62109375 17.79345703.96655518.59844727.96655518.59844727 1.95263672 1.20898438 18.31331389 11.21278572 39.86234393 20.89075552 61.04736328 24.79101562 1.5860197.3107787 3.17195137.62200687 4.7578125.93359375 16.00990415 3.06895284 32.14325272 5.5160176 48.2421875 8.06640625-3.487503 9.09651504-7.00819048 18.17936266-10.5625 27.25-.70286133 1.80210937-.70286133 1.80210937-1.41992188 3.640625-2.52505797 6.44154651-5.12384474 12.82395055-8.01757812 19.109375-25.79378618 1.12146896-50.45689074-5.56150795-73-18-.94488281-.50402344-1.88976562-1.00804687-2.86328125-1.52734375-2.13671875-1.47265625-2.13671875-1.47265625-3.44921875-4.84765625-2.22701916-4.78396708-4.87527004-6.62270851-9.6875-8.625-3.77066331-.85450284-7.51292819-1.0514473-11.37109375-.91796875-8.02222749-.06417782-12.35145916-4.48546056-17.984375-9.63964844-2.26342246-1.98519891-4.65892209-3.76695087-7.06884766-5.56909179-9.06088507-6.8156564-15.3215618-14.47748176-21.13818359-24.18579102-.3594873-.58692627-.71897461-1.17385254-1.08935547-1.77856445-1.50717526-2.6373684-2.36846595-4.46841965-2.22705078-7.53393555 2.6996473-7.29504694 7.71964003-13.67743055 12.19921875-19.96875 2.36546099-3.38866039 4.52505829-6.88049311 6.6796875-10.40625z" fill="#fcc640" transform="translate(332 519)"/><path d="m0 0c10.17640187 1.7021028 10.17640187 1.7021028 13.9375 3.0625 4.9050762 1.50155394 9.9610857 1.6238208 15.0625 1.9375-.40376222 7.26771997-2.85160992 13.62114556-5.42993164 20.35736084-.84839241 2.21664301-1.68588449 4.43716566-2.52124024 6.65875244-1.27923094 3.39776282-2.56359226 6.79352863-3.8515625 10.18798828-4.25435045 11.21535302-8.47723757 22.44259442-12.69726562 33.67089844-.45273285 1.20419586-.9054657 2.40839172-1.37191772 3.64907837-5.70001107 15.17360581-11.32605157 30.36766249-16.69058228 45.66342163-.2578125.73337585-.515625 1.46675171-.78125 2.22235107-2.7768721 7.91774641-5.41112431 15.85997046-7.77709961 23.91168213-2.53092992 7.71086701-8.26087587 11.89722978-15.09448242 15.89477539-2.69757569 1.18457155-4.45237507.90858747-7.22216797.03369141-1.53792057-.71430691-3.06049063-1.46297911-4.5625-2.25-1.36461187-.43028302-2.739354-.8307169-4.125-1.1875-.94875-.268125-1.8975-.53625-2.875-.8125 6.03458219-28.70998193 16.19524873-56.00020696 27.56933594-82.94091797 3.60889785-8.56555688 7.06255026-17.12027863 9.9946289-25.94604492 1.8976211-5.69347581 4.05219285-11.25500352 6.27075196-16.83105469 4.06487545-10.2373826 7.46329138-20.12245974 9.4465332-30.96557617.71875-3.31640625.71875-3.31640625 2.71875-6.31640625z" fill="#e67f25" transform="translate(673 637)"/><path d="m0 0 5 5c-1.37352928 3.11836333-2.91838973 5.11865428-5.4140625 7.42578125-.67933594.63228516-1.35867188 1.26457031-2.05859375 1.91601563-1.06541016.97549804-1.06541016.97549804-2.15234375 1.97070312-.68707031.63873047-1.37414062 1.27746094-2.08203125 1.93554688-4.08661488 3.78376068-8.24314588 7.47836343-12.44482422 11.13354492-3.50093514 3.06574624-6.90797906 6.23345596-10.33251953 9.3840332-5.89324738 5.234375-5.89324738 5.234375-8.515625 5.234375v2c-1.52837269 1.39599396-3.12650099 2.71587649-4.75 4-1.00289062.80179688-2.00578125 1.60359375-3.0390625 2.4296875-.52883789.42120117-1.05767578.84240234-1.60253906 1.27636719-2.61099231 2.10052508-5.16826206 4.26264815-7.73339844 6.41894531-3.37054064 2.81742628-6.75760993 5.58543572-10.25 8.25-3.37024463 2.57976907-6.58421262 5.29973677-9.78393555 8.08496094-18.53785391 16.13611896-18.53785391 16.13611896-30.79467773 15.89208984-5.52023592-.63793718-10.39481121-2.77161892-15.48388672-4.91455078-17.02022666-6.96038255-34.34923564-12.82617492-51.91699219-18.24511719-2.64699163-.81784127-5.29080153-1.64544074-7.93457031-2.47363281-10.36910211-3.22387164-20.77525413-6.08395797-31.32788086-8.64257812-3.40206325-.8253316-6.77175536-1.72712099-10.13696289-2.69335938-6.96578253-1.93425947-14.08355915-3.17785642-21.18359375-4.5078125-2.09638328-.39634558-4.19252327-.79393529-6.28846741-1.19259644-1.88249818-.35751333-3.76562566-.71170843-5.64878845-1.06570434-2.3893765-.47149169-4.76250904-1.02601544-7.12524414-1.61669922.33-5.28.66-10.56 1-16 1.485.268125 2.97.53625 4.5.8125 4.05861458.69976113 8.06009547 1.25832162 12.1640625 1.6015625 47.43884769 4.32222568 90.83293464 22.8804325 130.67114258 48.06201172.70793701.44617676 1.41587402.89235351 2.14526367 1.35205078.61254639.38833008 1.22509277.77666016 1.85620117 1.17675781 4.84662622 2.89958146 9.06803099 3.42453564 14.55786133 2.56933594 3.70050524-1.0092287 4.91598064-2.41162481 7.10546875-5.57421875 1.31770766-3.23203214 2.50489125-6.49892813 3.69140625-9.78125 1.78790104-4.39770285 4.2036422-7.67132378 7.30859375-11.21875.53496094-.63035156 1.06992187-1.26070312 1.62109375-1.91015625 1.76779749-2.05358461 3.5693132-4.07301714 5.37890625-6.08984375.70253906-.79535156 1.40507813-1.59070313 2.12890625-2.41015625 10.46406844-11.77435179 21.13343741-21.12649095 34.5234375-29.46875 2.72481963-1.72646098 5.41640271-3.48665831 8.1015625-5.2734375 17.39809556-11.53980372 17.39809556-11.53980372 26.24609375-14.84765625z" fill="#f9efd4" transform="translate(794 527)"/><path d="m0 0c.95777344.37125 1.91554688.7425 2.90234375 1.125.71285156.28875 1.42570312.5775 2.16015625.875-.56847656 1.15113281-1.13695312 2.30226563-1.72265625 3.48828125-6.36025352 13.04163409-12.13177113 26.20479093-15.83203125 40.26953125-.25434814.95729004-.50869629 1.91458008-.77075195 2.90087891-.48069291 1.85303214-.93872027 3.71213665-1.37060547 5.57714843-1.60499954 6.269661-1.60499954 6.269661-5.17504883 8.79541016-11.56385726 3.58032035-27.44085212 3.9191212-38.5859375-1.1484375-5.38190852-3.07786045-8.0294062-6.34539204-9.95703125-12.234375-1.94503877-8.79157525-.5429033-15.95544661 4.23046875-23.53125 11.3844443-16.25185429 28.2018938-23.67098109 47.08984375-27.48828125 6.15389667-1.05495372 11.17567003-.94222179 17.03125 1.37109375z" fill="#a6dfbc" transform="translate(274.9375 553)"/><path d="m0 0c4.80202432 1.32469636 5.82748031 2.96828045 8.625 7 2.96211289 5.92422578 1.48743874 16.3775958-.25 22.5625-2.72393366 7.64214721-7.89690141 14.71582985-15.0625 18.734375-10.63981385 4.8299155-23.68526934 5.69437774-35.046875 2.8671875-9.29975852-4.30330441-14.14615396-11.97236275-17.70703125-21.27734375-1.22126305-3.77620668-1.73815047-6.91270545-1.93359375-10.88671875-.05027344-.763125-.10054688-1.52625-.15234375-2.3125-.19577322-4.7612046-.00623478-7.87542246 3.15234375-11.6875 2.16525195-2.35084498 3.68289854-3.83970368 6.92578125-4.234375 4.19918633.22142602 5.79831367.97646373 8.94921875 3.921875 3.64897879 5.68811399 4.36492376 10.51021269 4.5859375 17.140625.3136243 2.33438908.3136243 2.33438908 2.4296875 3.3671875.69609375.26554687 1.3921875.53109375 2.109375.8046875.78375.53625 1.5675 1.0725 2.375 1.625 3.26817171 1.71189947 4.97906844 1.97025413 8.625 1.375 4.56414477-2.68479104 6.21641011-4.8195479 7.75-9.875.4401536-1.70243317.85832781-3.4107635 1.25-5.125 1.60945807-7.01263873 5.30769747-14 13.375-14z" fill="#3f2f18" transform="translate(492.375 392)"/><path d="m0 0c4.16959422.8509376 6.1102274 2.60563029 9.0625 5.625 3.538991 7.02966812 2.90378924 15.28011211 1.08984375 22.74609375-2.98598591 8.91955277-6.43332455 16.8203814-15.08984375 21.25390625-11.49923705 3.41186154-22.7704856 4.89680464-34 0-2.9489405-1.73158428-5.47258839-3.70185683-8-6-.54527344-.49113281-1.09054687-.98226562-1.65234375-1.48828125-6.76015148-6.93216551-9.60049179-16.39485987-10.03515625-25.88671875.19133082-5.53624987 1.17618525-8.64917402 5.1796875-12.48828125 3.19266711-2.40690707 5.54894312-2.60246809 9.5078125-2.13671875 5.2990999 4.26894829 6.69788595 8.89682666 8.671875 15.1171875 1.59774381 4.70446789 3.32137871 7.70151619 7.328125 10.8828125 2.99653186 1.05106008 5.8360568 1.2310745 9 1 2.4212319-1.2910871 2.4212319-1.2910871 4-3h2c.10957031-.85722656.21914063-1.71445312.33203125-2.59765625 2.90705029-20.96385046 2.90705029-20.96385046 12.60546875-23.02734375z" fill="#3e2e18" transform="translate(635.9375 393.375)"/><path d="m0 0c3.33391678 2.03287609 5.21005 4.26253669 7.25 7.5 3.37945778 4.98363078 8.51017306 6.73008897 14.19921875 8.08203125 6.96467555 1.14122555 13.59045822 1.33153739 19.84765625-2.2421875 2.39859284-1.88696638 3.85766359-4.11062856 5.5-6.65625 1.98425335-2.77666622 4.18000425-4.17203338 7.203125-5.68359375 4.31109527-.605066 6.20847539-.5162117 9.875 1.875 2.74372018 2.74372018 3.32446573 4.34426189 3.5 8.125-.10657492 7.36551123-3.66944885 13.46724744-8.5625 18.8125-9.22354913 8.53883151-21.8730101 11.55512658-34.13671875 11.40625-11.7019722-.95665758-23.24283468-6.08641504-31.67578125-14.21875-4.21326507-5.38803289-7.37420103-9.90206213-7.28515625-16.8984375.46666529-3.43925923 2.06641212-5.51302768 4.28515625-8.1015625 3.19879429-2.34578248 6.10652889-2.47675156 10-2z" fill="#3e2e18" transform="translate(511 465)"/><path d="m0 0c2.71587502 1.31574916 5.28330751 2.74706279 7.8359375 4.35546875 25.15172377 15.71599112 52.67259544 27.0049616 81.91796875 32.578125 11.29722937 2.20034666 19.43595766 6.40040664 26.24609375 16.06640625-.495.99-.495.99-1 2-41.14108063-4.0501582-75.7580967-17.95759762-106.5-45.8125-.75724365-.68425049-.75724365-.68425049-1.52978516-1.38232422-2.63430852-2.4251371-4.93519423-4.8557709-6.97021484-7.80517578z" fill="#f9c840" transform="translate(329 779)"/><path d="m0 0c-11.71571181 6.66392947-22.89249874 11.81356923-36 15-1.35738281.36544922-1.35738281.36544922-2.7421875.73828125-2.08713248.53081051-4.12902056.9426099-6.2578125 1.26171875-.76699219.11859375-1.53398437.2371875-2.32421875.359375-3.53408824.30375634-5.71719082.39605738-8.57421875-1.85546875-4.1015625-4.63110695-4.1015625-4.63110695-4.1015625-7.50390625-.66 0-1.32 0-2 0 0-.66 0-1.32 0-2 1.1859375.02320313 2.371875.04640625 3.59375.0703125 17.64682639.24033 35.14427536-1.70052777 52.21875-6.3203125 3.1875-.75 3.1875-.75 6.1875.25z" fill="#f8c940" transform="translate(540 815)"/><path d="m0 0c-1.7664657 1.0076952-3.53833823 2.00591714-5.3125 3-1.47919922.8353125-1.47919922.8353125-2.98828125 1.6875-2.69921875 1.3125-2.69921875 1.3125-5.69921875 1.3125-.33-1.32-.66-2.64-1-4 1.93475671-.53093324 3.87293155-1.04942317 5.8125-1.5625 1.07894531-.29003906 2.15789063-.58007812 3.26953125-.87890625 2.91796875-.55859375 2.91796875-.55859375 5.91796875.44140625z" fill="#eac741" transform="translate(540 815)"/><path d="m0 0c3.19624262 1.53837846 6.21605574 3.28866532 9.25 5.125.89203125.53882813 1.7840625 1.07765625 2.703125 1.6328125 1.01320313.61488281 1.01320313.61488281 2.046875 1.2421875-.66 1.32-1.32 2.64-2 4-4.52615993-3.67832017-8.39424999-7.41086363-12-12z" fill="#eac43e" transform="translate(329 779)"/></svg>